<svg width="84" height="84.368446" xmlns="http://www.w3.org/2000/svg">

 <g>
  <title>Layer 1</title>
  <g id="svg_1">
   <circle id="svg_2" stroke-miterlimit="2.613" stroke-width="0.26458" fill="#fff" r="39.56063" cy="43.0547" cx="42.42015"/>
   <g id="svg_3" stroke-width="0.12829">
    <g id="svg_4" stroke-width="0.12829">
     <path id="svg_5" stroke-width="0.12829" fill-rule="evenodd" fill="#79000e" d="m52.977,24.022a7.14115,-7.14115 0 0 0 7.1274,7.13015a7.14115,-7.14115 0 0 0 -7.1274,7.1274a7.14115,-7.14115 0 0 0 -7.1274,-7.1274a7.14115,-7.14115 0 0 0 7.1274,-7.13015m-21.58294,0a7.1494,-7.1494 0 0 0 7.13015,7.13015a7.14115,-7.14115 0 0 0 -7.13015,7.1274a7.1384,-7.1384 0 0 0 -7.12465,-7.1274a7.14115,-7.14115 0 0 0 7.12465,-7.13015m7.02016,23.72776c0.011,-0.53071 0.04675,-1.1604 -0.15124,-1.48763c-0.19523,-0.32722 -0.51971,-0.34647 -0.87993,-0.14024s-0.67369,0.69294 -1.00917,1.10816l-13.05866,16.21814c-0.81118,1.00367 -1.46563,2.16957 -1.69936,3.27773a4.94959,-4.94959 0 0 1 0.31072,3.01375c0.38497,0.87718 1.00092,1.61411 1.8341,2.24931c0.83593,0.6407 1.88909,1.1769 2.9945,1.71036c1.11091,0.53346 2.27681,1.05866 3.34097,1.40788s2.03483,0.51696 2.78827,0.52246c0.75619,0.0055 1.30339,-0.15399 1.96059,-0.47571c0.65994,-0.32447 1.43263,-0.81668 1.98258,-1.50687c0.5527,-0.69019 0.88268,-1.58112 1.07516,-2.52704c0.19248,-0.94317 0.13749,-1.93584 0.15674,-2.92026l0.35472,-20.45004zm7.54262,0c-0.00825,-0.53071 -0.044,-1.1604 0.15124,-1.48763s0.51971,-0.34647 0.88268,-0.14024c0.36022,0.20898 0.67094,0.69294 1.00642,1.10816l13.05866,16.21814c0.81118,1.00367 1.46838,2.16957 1.69936,3.27773a4.94959,-4.94959 0 0 0 -0.30797,3.01375a5.69202,-5.69202 0 0 0 -1.83685,2.24931c-0.83318,0.6407 -1.88634,1.1769 -2.9945,1.71036a27.4977,-27.4977 0 0 0 -3.33822,1.40788a9.62419,-9.62419 0 0 0 -2.79102,0.52246a4.12465,-4.12465 0 0 0 -1.96059,-0.47571c-0.6572,-0.32447 -1.43263,-0.81668 -1.98533,-1.50687s-0.87718,-1.58112 -1.06966,-2.52704c-0.19523,-0.94317 -0.14024,-1.93584 -0.15674,-2.92026l-0.35747,-20.45004zm-17.17781,-2.01558q0.13474,-0.52246 -0.48396,-0.71494c-0.41247,-0.13199 -1.06966,-0.0495 -1.68286,-0.0495l-11.85151,0c-2.14482,0 -4.24015,0.6572 -5.29606,1.7681s-1.65536,3.10999 -1.03391,4.89734l1.30614,3.74244c0.68194,1.95784 2.91201,2.956 4.45738,3.16224c1.54262,0.20623 3.48396,-0.48946 4.8011,-1.92209l8.96425,-9.76168c0.33547,-0.36572 0.73144,-0.76994 0.81943,-1.12191m26.81301,0q-0.13199,-0.52246 0.48396,-0.71494c0.41247,-0.13199 1.07241,-0.0495 1.68561,-0.0495l11.84876,0c2.14757,0 4.24015,0.6572 5.29606,1.7681s1.65811,3.10999 1.03391,4.89734l-1.30614,3.74244c-0.68469,1.95784 -2.91201,2.956 -4.45463,3.16224s-3.48396,-0.48946 -4.8011,-1.92209l-8.96425,-9.76168c-0.33822,-0.36572 -0.73419,-0.76994 -0.82218,-1.12191m-42.11823,-9.74793c-0.19798,0.79468 -0.31347,1.12191 -0.48946,1.41063a2.86251,-2.86251 0 0 0 -3.5857,1.1549a2.91476,-2.91476 0 0 0 -1.46288,-1.38038a2.47479,-2.47479 0 0 0 -0.28873,-1.06416c-0.01925,-0.42896 0.06049,-0.95417 0.28598,-1.91384c0.22823,-0.95417 0.59945,-2.34555 1.06966,-3.70944q0.70944,-2.04858 1.67461,-3.99267q0.96242,-1.94409 2.15582,-3.76444a35.74701,-35.74701 0 0 0 5.63153,-6.61595q1.60862,-1.47938 3.37672,-2.74702q1.77085,-1.25939 3.67919,-2.29881q1.90559,-1.04491 3.92392,-1.83135c1.34464,-0.51971 2.72502,-0.94317 3.76993,-1.2374s1.7571,-0.45646 2.28231,-0.49221a2.47479,-2.47479 0 0 0 1.18515,0.19248c0.31622,0.13749 0.61595,0.31622 0.86893,0.54445c0.84693,0.78918 1.09441,1.80385 0.87443,2.79927a3.02475,-3.02475 0 0 0 -0.40147,0.93767a2.91476,-2.91476 0 0 0 -1.71036,1.20715c-0.40972,0.12099 -0.92392,0.21448 -1.47113,0.34372a19.24839,-19.24839 0 0 1 -2.02383,0.61595a35.74701,-35.74701 0 0 1 -3.29422,1.35014q-1.76535,0.84693 -3.40422,1.93034a29.69752,-29.69752 0 0 1 -5.92025,5.15032a29.14756,-29.14756 0 0 1 -4.36114,6.49771a26.12281,-26.12281 0 0 1 -1.49038,3.6077c-0.39597,1.2374 -0.67644,2.50779 -0.87443,3.30522m57.4262,0c0.19798,0.79468 0.31347,1.12191 0.48946,1.41063a2.86801,-2.86801 0 0 1 4.43813,0.59945q0.37397,-0.35747 0.61045,-0.82493a2.47479,-2.47479 0 0 1 0.28873,-1.06416c0.0165,-0.42896 -0.06324,-0.95417 -0.28873,-1.91384c-0.22548,-0.95417 -0.59945,-2.34555 -1.06691,-3.70944q-0.70944,-2.04858 -1.67736,-3.99267a35.74701,-35.74701 0 0 1 -4.76535,-7.24014q-1.41338,-1.66086 -3.01925,-3.14024t-3.37947,-2.74702a35.74701,-35.74701 0 0 1 -3.67644,-2.29881a32.99724,-32.99724 0 0 1 -3.92392,-1.83135c-1.34464,-0.51971 -2.72502,-0.94317 -3.77268,-1.2374c-1.04491,-0.29423 -1.7571,-0.45646 -2.28231,-0.49221a2.47479,-2.47479 0 0 1 -1.1824,0.19248a3.29972,-3.29972 0 0 1 -0.87168,0.54445a2.85976,-2.85976 0 0 1 -0.87443,2.79927a2.85976,-2.85976 0 0 1 2.11182,2.14482c0.41247,0.12099 0.92667,0.21448 1.47113,0.34372c0.5472,0.12924 1.12741,0.29698 2.02658,0.61595s2.11457,0.78918 3.29422,1.35014q1.7626,0.84693 3.40147,1.93034a29.97249,-29.97249 0 0 0 8.32355,8.25756q1.08616,1.63611 1.95784,3.39047c0.5802,1.16865 1.09441,2.3703 1.49038,3.6077s0.67644,2.50779 0.87718,3.30522m-28.7131,-35.98624c23.23281,0 42.18422,18.94591 42.18422,42.18147c0,23.23831 -18.95141,42.18697 -42.18422,42.18697c-23.23831,0 -42.18697,-18.94866 -42.18697,-42.18697c0,-23.23556 18.94866,-42.18147 42.18697,-42.18147"/>
    </g>
    <g id="svg_6" stroke-width="0.12829">
     <path id="svg_7" stroke-width="0.12829" fill-rule="nonzero" fill="#eaeaea" d="m145.987,57.632c1.19615,0.05775 1.93859,0.51696 2.66728,1.02566c0.26398,0.18148 0.54995,0.25573 0.78918,0.44821c0.97892,0.78368 1.35839,2.55454 1.06141,4.44638c-0.11274,0.72044 0.03575,1.40238 -0.17324,1.99908a8.52429,-8.52429 0 0 0 -2.04858,3.25023c-0.26398,0.25573 -0.64895,0.36572 -0.96242,0.5747c-0.35747,0.23098 -0.77544,0.6352 -1.16315,0.80018c-1.40513,0.5967 -3.29697,0.54445 -4.83685,0.05225l-0.96242,-0.52796c-0.59945,-0.25848 -1.1769,-0.42071 -1.72961,-0.75069l-0.37122,-0.39872c-0.36847,-0.28323 -0.83318,-0.5527 -1.11091,-0.92667c-0.75619,-1.01741 -0.95692,-3.6132 -0.51696,-5.26856c0.11824,-0.44546 0.41247,-0.86893 0.66819,-1.20165l0.44271,-0.42621c0.39597,-0.86618 0.02475,-1.64986 0.91292,-2.09807c0.44821,-0.22548 2.50779,-0.79193 3.15949,-0.62145c0.5967,0.14849 1.1989,0.76169 1.97708,0.5967c0.59395,-0.12099 1.03941,-0.49771 1.47938,-0.77544c0.20348,-0.12374 0.47296,-0.09624 0.71769,-0.19798m194.28499,-0.82218c2.03758,-0.01925 2.02658,1.25664 2.54629,2.84326c0.17874,0.55545 0.5857,1.38038 0.36847,2.23281c-0.18973,0.73419 -0.79468,2.04858 -1.1604,2.68378l-0.42071,0.44821c-0.26673,0.46196 -0.15949,1.22915 -0.46746,1.62786c-0.42346,0.5582 -2.07883,1.26489 -3.10999,0.81943c-2.13382,-0.92117 -4.22365,-2.01283 -6.04949,-3.28598c-0.72319,-0.50596 -1.69111,-0.97342 -2.10082,-1.79285c-0.46746,-0.92942 0.14299,-2.30981 0.81393,-2.52154c0.45921,-0.15124 0.98167,0.00825 1.36114,-0.18698c1.13565,-0.58295 1.52612,-1.91659 2.81301,-2.3648c0.71494,-0.25023 1.7351,-0.04125 2.46929,0.07699c0.80018,0.13199 2.45279,-0.31072 2.93675,-0.5802m-131.26852,-4.46838c3.022,-0.04125 4.33914,0.33547 5.55454,2.25756c0.34372,0.5472 0.89093,0.85793 1.06141,1.60587c0.16499,0.72319 -0.12374,1.41613 -0.12099,2.13382c0,0.82768 0.29698,1.98533 0,2.73602c-0.21998,0.5527 -1.2044,2.49679 -1.58112,2.81026c-0.79743,0.67094 -1.91384,1.03391 -2.78827,1.60587c-0.52246,0.34372 -0.88543,0.93767 -1.48213,1.24015c-0.50046,0.24748 -3.94317,0.10999 -4.42163,-0.08524l-0.96242,-0.65445c-0.35197,-0.24748 -0.80018,-0.40147 -1.03666,-0.76169c-0.41522,-0.63245 -0.39047,-1.63886 -0.5912,-2.49954c-0.13749,-0.58295 -0.44271,-1.39413 -0.27223,-2.18332c0.11824,-0.54995 0.45646,-0.84968 0.5912,-1.39413c0.11824,-0.47571 -0.01925,-1.03941 0.14849,-1.44638c0.18973,-0.45646 0.63795,-0.75894 0.91567,-1.13291c0.27498,-0.37122 0.48396,-0.83043 0.76169,-1.18515q0.52246,-1.00642 1.03941,-2.02383c0.6572,-0.52521 1.68011,-0.70944 2.59303,-0.94592l0.5912,-0.07699zm128.60399,-2.60678l-0.76719,0.10724c-0.6077,0.19798 -1.09991,0.51971 -1.8011,0.65445l-1.48213,0.13474c-0.77818,0.18698 -1.34189,0.63245 -2.19707,0.78643c-0.97067,0.18423 -1.44363,-0.6077 -2.39505,-0.39047c-1.22365,0.27498 -1.97159,1.30614 -3.08524,1.7351q-0.64345,0.20348 -1.28414,0.41797c-0.5967,0.16774 -1.2209,0.10724 -1.65261,0.41797c-0.5967,0.43446 -1.07516,1.2539 -1.55912,1.82035c-0.77544,0.90742 -2.02933,1.94959 -2.49404,3.12924c-0.20073,0.51421 -0.18423,1.11916 -0.31897,1.70761c-0.09349,0.41247 -0.34372,0.88818 -0.24748,1.47388c0.26948,1.61411 0.94592,2.70577 1.60587,3.86618l0.19523,0.47296l0.37397,0.26673c0.32997,0.31897 0.5967,0.86343 0.91017,1.20715l0.44546,0.36847l0.93767,1.47388c0.31622,0.43171 0.88818,0.69569 1.2374,1.10541c0.45921,0.54445 0.83043,1.2154 1.42988,1.60312c0.36022,0.23648 0.76444,0.28598 1.13565,0.52796c0.5417,0.34647 0.97342,0.87993 1.62786,1.1549c0.82768,0.35197 2.13932,0.26673 3.06324,0.055c0.30797,-0.07424 0.74519,-0.26673 1.18515,-0.16224c0.92392,0.22823 1.35014,0.88818 2.29606,1.08341l2.64253,-0.0275c0.73419,0.13199 1.53162,0.54445 2.3923,0.36847c1.46288,-0.29972 2.55179,-0.98992 3.58295,-1.7626l0.73969,-0.70944c0.39597,-0.29148 0.86068,-0.42346 1.23465,-0.73694c0.41522,-0.34372 0.52521,-0.92667 0.81393,-1.41888c0.32447,-0.5527 0.77544,-0.96242 1.28414,-1.31714c0.69569,-0.48671 1.64986,0.07149 2.56829,-0.10999q0.34647,-0.09899 0.69294,-0.20898c0.36847,-0.26673 1.73785,-1.77635 1.90009,-2.20257c0.28048,-0.75069 -0.04125,-1.79285 0.12099,-2.63428c0.15949,-0.81118 0.57195,-1.19065 0.71769,-2.07883c0.23373,-1.41888 -0.56095,-2.16132 -0.88818,-3.07424c-0.32447,-0.90467 -0.21998,-2.21082 -0.54445,-3.10724c-0.21723,-0.5967 -0.75344,-1.26489 -1.13291,-1.73236l-0.29972,-0.50046q-0.21998,-0.10449 -0.44271,-0.21448l-1.06416,-0.78368l-0.31897,-0.55545c-0.35472,-0.54995 -0.80568,-1.1384 -1.38313,-1.44913c-0.67919,-0.36297 -2.09532,-0.89093 -3.08524,-0.6022c-0.69294,0.20073 -1.86984,0.96792 -2.88726,0.76169c-0.67369,-0.13749 -0.92392,-0.58845 -1.43538,-0.81393c-0.57195,-0.25848 -1.63336,-0.10724 -2.36755,-0.10724m73.03939,-2.18057c-0.67644,0.28048 -1.33914,0.24748 -1.99908,0.49771c-0.58295,0.22823 -1.05041,0.78643 -1.63061,0.92392l-6.09624,-0.02475l-5.06233,0.28598q-0.82768,-0.15949 -1.65536,-0.31347l-1.62786,-0.03025c-0.73694,-0.22823 -1.28689,-0.94317 -2.3703,-0.73419c-0.99542,0.18973 -1.86709,0.52796 -2.91476,0.70944c-0.94592,0.15949 -1.67461,-0.39597 -2.61503,-0.18423c-1.79835,0.40972 -3.10449,1.34739 -4.8396,1.7626l-1.2099,0.10174c-0.57745,0.13749 -1.05591,0.42346 -1.60587,0.55545l-1.77635,0.10449c-0.38497,0.09899 -0.66819,0.33272 -0.98717,0.47296c-0.32447,0.14574 -0.70944,0.13749 -1.06141,0.28873c-0.52521,0.23373 -1.02841,0.73969 -1.48213,1.08066c-0.53895,0.39872 -1.73785,1.23465 -1.50687,2.29056c0.28598,1.28689 1.70761,0.69019 3.011,0.92117c1.35839,0.23373 2.47479,-0.25573 3.5307,-0.53071c0.88268,-0.22273 1.96334,-0.10174 2.89001,-0.28873l1.23465,-0.28873c0.68744,-0.04675 1.30889,0.30797 1.94959,0.42346c1.08616,0.18698 1.92484,-0.40697 2.91476,-0.13474q0.80018,0.30247 1.60312,0.60495l2.15032,0.18423c0.42621,0.09349 0.91292,0.37947 1.48213,0.26123l1.01192,-0.28873l2.09807,-0.12924c1.21265,-0.09074 2.60678,0.15674 3.75344,-0.13199c2.07058,-0.52521 4.78735,-1.58662 7.45463,-1.13016c0.60495,0.10449 1.2374,-0.04675 1.75435,0.12924c0.70944,0.24748 0.77544,1.13565 1.1824,1.71036c0.34372,0.48121 1.1769,0.61045 1.45738,1.13565c0.25573,0.47296 -0.11274,1.02566 -0.02475,1.54812l0.27223,1.08066c0.16499,0.93492 -0.20073,1.71861 -0.31897,2.46929s0.33822,1.37488 0.44271,2.05133c0.06049,0.39872 -0.11549,0.81118 -0.17324,1.13016c-0.09349,0.53346 0.05225,1.03391 0.12374,1.47388c0.06324,0.39047 -0.06874,0.82218 -0.12374,1.13291a4.39963,-4.39963 0 0 1 0.07424,1.68286c0.26123,1.03941 1.15765,2.66178 2.04858,3q0.59395,0.10174 1.18515,0.20623c0.63245,0.17874 1.47663,0.45646 2.29606,0.26673l1.28689,-0.55545q0.50596,-0.09899 1.00917,-0.20898c1.87259,-0.72869 3.22273,-1.84785 3.72869,-4.05041c0.14574,-0.6297 -0.14024,-1.32814 0.02475,-1.92209c0.14574,-0.51696 0.50871,-0.92942 0.61595,-1.57837c0.11549,-0.66544 -0.26398,-1.06691 -0.14849,-1.7351l0.49496,-1.25939c0.21998,-1.03391 -0.22548,-2.08433 -0.37122,-2.97525q-0.011,-0.86893 -0.02475,-1.7351c-0.14299,-0.72319 -0.56645,-1.03666 -0.78918,-1.63061l-0.24748,-1.13016q-0.16774,-0.30247 -0.34647,-0.60495c-0.23373,-0.57745 -0.01925,-1.65811 -0.31897,-2.18057c-0.36572,-0.64895 -1.2319,-1.31164 -1.8506,-1.68561l-0.51971,-0.18698c-0.50596,-0.32447 -1.01467,-0.80018 -1.53162,-1.12741l-0.93767,-0.44821c-0.20348,-0.12924 -0.35472,-0.32447 -0.61595,-0.39597c-0.84143,-0.22823 -1.2044,0.51971 -1.87809,0.34097c-0.89917,-0.23923 -1.12466,-1.16315 -2.4198,-1.20715m-198.03843,-1.84235l-1.53162,0.18698c-1.53437,0.44546 -3.25298,0.72594 -4.93584,1.04766l-2.27131,0.13199c-0.39597,0.09074 -0.71494,0.32722 -1.03941,0.47571l-2.26856,0.89093c-0.30797,0.12374 -0.5802,0.35197 -0.96242,0.44821l-0.96517,0.08249l-1.67736,0.39322c-0.87443,0.15949 -1.60587,-0.43721 -2.39505,0.07424a4.01466,-4.01466 0 0 1 -1.50687,1.79285c-0.16499,0.42621 -0.14849,0.84143 -0.37122,1.1824c-0.23923,0.37122 -0.6187,0.67644 -0.96242,0.94592c-0.82218,0.66269 -1.45188,1.8121 -1.8011,2.9725c-0.34647,1.1494 -0.37672,4.06691 -0.07699,5.31531c0.15949,0.65445 0.53071,1.29789 0.81668,1.8396l0.44271,1.18515c1.03666,1.62511 2.24381,3.18698 3.70394,4.36114c0.26948,0.22273 0.72869,0.87443 0.93767,1.19065q0.20073,0.14024 0.39597,0.28598c0.48396,0.43996 0.94867,0.95142 1.50962,1.31439c0.86343,0.56645 2.01008,0.6077 3.15674,0.89642c0.54995,0.13749 1.06966,0.36022 1.68011,0.47296l2.44455,0.15949c1.21265,0.21448 2.81851,0.38497 3.97342,0c0.44271,-0.14849 0.72319,-0.46196 1.08616,-0.63245l0.88818,-0.28873c0.62695,-0.24748 1.2319,-0.69569 1.80385,-0.97617c0.48671,-0.23373 1.02841,-0.28598 1.58112,-0.50046c0.52521,-0.20348 1.07791,-0.50596 1.65261,-0.68469c0.54445,-0.16499 1.05316,-0.23373 1.68011,-0.33822c0.94592,-0.16224 1.8341,0.04675 2.59303,-0.21173c0.5967,-0.20623 1.26489,-1.38313 1.65261,-1.89459q0.52246,-0.34922 1.03666,-0.70944c0.51696,-0.37947 0.94867,-1.28689 1.18515,-1.94684c0.31072,-0.85243 0.45646,-2.47479 0.27223,-3.68194c-0.07149,-0.47021 -0.18148,-1.09991 -0.09899,-1.65536c0.42346,-2.86251 -0.15124,-4.64711 -0.91292,-6.65719c-0.14299,-0.37672 -0.19248,-0.76444 -0.39597,-1.07791l-0.41797,-0.39047c-0.26673,-0.40697 -0.53071,-0.84143 -0.89093,-1.13291l-0.49221,-0.31622a6.59945,-6.59945 0 0 1 -1.18515,-1.26214l-0.29698,-0.47571a5.49954,-5.49954 0 0 1 -0.73969,-0.5747q-0.50596,-0.24198 -1.01467,-0.47296l-0.34372,-0.32172l-1.1604,-0.31347c-1.22915,-0.45646 -2.05683,-1.13291 -3.77818,-1.13016m51.24196,-7.31439c-0.46746,0.22273 -1.46013,0.76719 -2.12557,0.6352c-0.45096,-0.09349 -0.84693,-0.69019 -1.45463,-0.50321c-0.5527,0.17049 -0.93217,1.36114 -1.48213,1.76535c-0.50871,0.37122 -1.03391,0.29423 -1.25939,0.97067c-0.36847,1.11916 0.40422,2.09807 0.5912,2.92026c0.12924,0.5582 0.11274,1.53712 0.02475,2.13107c-0.16224,1.10266 -0.05225,2.26031 -0.19523,3.21173c-0.15674,1.04216 0.15674,1.87534 -0.51971,2.3648c-0.5527,0.39872 -1.32539,0.14574 -2.17232,0.29148c-0.68469,0.11549 -1.48213,0.40972 -2.29606,0.23373c-0.6187,-0.13199 -1.15765,-0.34922 -1.8506,-0.47296c-1.09716,-0.19523 -2.22731,0.18973 -3.38497,0c-1.17965,-0.19248 -2.945,-0.38772 -3.99817,0.02475c-0.21998,0.09074 -0.30247,0.31347 -0.46746,0.44821c-0.43721,0.36572 -0.83868,0.73144 -1.28689,1.08066l-0.73969,0.52521c-0.57195,0.22823 -1.2429,0.32722 -1.55637,0.81393c-0.37947,0.5912 -0.0495,1.62236 0.32172,1.91934c0.45371,0.36022 1.42713,0.26398 2.19707,0.26398c1.08891,0 2.24381,-0.01925 3.16224,-0.28873c0.72869,-0.21173 1.55087,-0.69019 2.51879,-0.44821l1.2319,0.60495l2.69202,0.57745c1.35289,0.28048 2.93125,-0.23923 4.2209,0.10724c0.62695,0.16774 1.01192,0.51971 1.55637,0.73694l1.08616,0.28873c0.72594,0.28323 1.57837,0.69294 2.34555,0.92117c0.88543,0.26123 1.94959,0.12099 2.93675,0.28873l1.23465,0l2.81576,0.10449c0.96792,-0.15949 1.93584,-0.011 2.78827,-0.26123c1.20165,-0.35197 2.19707,-0.94592 3.50596,-1.2374c1.38588,-0.30522 3.47846,-0.20898 5.03758,-0.20898l1.70486,0c0.95692,-0.17049 1.61411,-0.48396 2.66728,-0.65445c1.2209,-0.20623 2.19432,0.49771 3.13474,0.73144q0.92392,0.10999 1.8506,0.20898c1.41063,0.24473 3.5527,0.36847 5.08707,0.10724q0.82493,-0.0385 1.65261,-0.08249c0.92392,-0.15399 2.03758,0.26123 2.81576,-0.04675c0.69569,-0.27773 0.95417,-0.91017 1.47938,-1.34464c0.41247,-0.33547 0.91292,-0.5527 1.16315,-1.07791c1.1989,-2.50504 -0.88543,-5.04583 -2.88726,-5.44179q-2.12557,0.00825 -4.24839,0.02475l-2.17232,-0.21448c-0.55545,-0.14574 -1.07241,-0.38222 -1.58112,-0.52246l-1.8506,-0.31622c-1.12741,-0.20898 -2.3428,-0.00825 -3.5307,-0.20898c-1.48488,-0.25023 -3.33547,0.24473 -4.52062,0.47296c-0.86343,0.17049 -1.82585,-0.055 -2.59028,-0.18423c-1.8176,-0.31622 -3.08799,0.50046 -4.47113,0.78918c-0.5582,0.11824 -1.34464,0.28048 -1.8506,0.0495c-0.28873,-0.13199 -0.44821,-0.70394 -0.36847,-1.2044c0.19248,-1.2429 0.26398,-3.0385 -0.05225,-4.29514l-0.6407,-1.44363q-0.20898,-0.21998 -0.42071,-0.44271c-0.40422,-0.71494 -0.47021,-1.65811 -0.95967,-2.26581l-0.42346,-0.28873c-0.51696,-0.38222 -1.02016,-0.94317 -1.60312,-1.26214q-0.53071,-0.19798 -1.05866,-0.39322c-0.6132,-0.31897 -0.79468,-0.50596 -1.80385,-0.50321m74.42527,-0.68194l-2.47204,0.15399c-1.88084,0.32997 -3.80293,0.23373 -5.60403,0.65994c-2.4088,0.57745 -5.4033,0.73969 -7.82585,1.36939q-0.94042,0.27498 -1.87534,0.5527l-1.13565,0.18423c-1.07516,0.37947 -2.21631,0.78368 -3.38497,1.10541q-1.73785,0.20623 -3.47846,0.42071l-3.01375,0.20898l-2.29606,0.5527c-0.62695,0.15124 -1.16865,0.17324 -1.70486,0.39597c-0.40422,0.16224 -0.6352,0.56645 -0.96242,0.81393c-0.5472,0.41247 -1.36114,1.2044 -1.13565,2.31531c0.19523,0.95142 2.46104,1.41063 3.6297,1.10541q0.60495,-0.22273 1.2099,-0.45096l3.72869,-0.78643c1.03666,-0.23648 2.15032,-0.06324 3.25848,-0.26123c0.81118,-0.14849 1.65536,-0.5692 2.64253,-0.39597l3.6022,0.57745l1.95234,0.15674l2.17232,0.055l2.22181,-0.23373c0.81668,-0.18148 1.58112,-0.44271 2.44455,-0.6077l4.36938,-0.23648c0.70394,-0.19248 1.37763,-0.44271 2.17232,-0.57745c1.14665,-0.20073 2.01558,0.34922 3.16224,0.15674c1.27864,-0.21723 2.72777,-0.13474 3.95142,0.07699c0.78643,0.13749 1.69111,-0.14849 2.51604,0c1.04491,0.18973 1.80385,-0.41797 2.88726,-0.21173c1.17965,0.22823 2.57928,1.02841 4.02566,0.76444c0.93767,-0.17049 1.49038,-0.5747 2.32356,-0.76444c0.48396,-0.10449 1.11916,-0.25298 1.69936,-0.15674l1.36114,0.07974c0.5802,-0.10449 1.01467,-0.31347 1.52887,-0.42071c0.86068,-0.17049 1.32539,0.56095 2.24931,0.29148c0.47846,-0.14299 0.82218,-0.59395 1.1824,-0.87443c0.77818,-0.59395 1.07516,-0.92392 1.60312,-1.78735l0.19798,-0.57745l0.6187,-0.86893a1.86984,-1.86984 0 0 1 0,-1.10266c-0.39872,-1.30064 -1.91384,-1.32814 -3.35747,-1.07791l-1.35839,0.07699l-1.35564,0.0275l-3.65719,-0.0275l-2.89001,0.07974c-1.63886,-0.27223 -3.18973,-0.29148 -4.7626,-0.5802c-1.35839,-0.24473 -2.9835,-0.07699 -4.44363,-0.07699c-1.93034,0 -3.95417,-0.10174 -5.99725,-0.10449m-193.6718,-0.72319l-1.38313,0.05225c-1.2484,0.20073 -2.57653,0.08799 -3.70394,0.37122c-0.5802,0.14849 -1.1714,0.36572 -1.8011,0.50046q-1.92484,0.34097 -3.85243,0.67369c-0.53346,0.14024 -1.01192,0.37397 -1.50687,0.52796l-1.8011,0.32447l-1.57837,0.52521q-3.07699,0.61595 -6.14849,1.2209c-1.86159,0.36572 -4.25114,0.23373 -6.09899,0.5527c-3.08249,0.52796 -7.24564,-0.41247 -8.3923,2.04858c-0.21723,0.46196 -0.66544,1.04491 -0.47021,1.82035a0.83868,-0.83868 0 0 1 1.00917,0.6242q0.86618,-0.26673 1.72961,-0.54995c0.98992,-0.23923 2.60953,-0.30247 3.75344,-0.12099l1.06141,0.02475l4.96333,0.37672c2.4418,0.40422 5.05683,0.69019 7.60311,0.22273c0.5857,-0.07149 1.16865,-0.15399 1.75435,-0.22273c1.06141,-0.27773 2.02658,-0.78918 2.98625,-1.08066c1.66911,-0.49221 2.77727,0.26948 3.45646,1.2319c0.52796,0.74244 0.25298,3.19523 0.02475,4.04216c-0.16224,0.60495 -0.25573,1.25115 -0.56645,1.72686l-0.37122,0.27773l-0.27223,0.34647c-0.50321,0.42896 -1.05316,0.77544 -1.58112,1.17415c-0.97067,0.73694 -1.7626,1.8121 -2.49129,2.80202l-0.42071,0.44546c-0.77544,1.51787 -1.66086,3.033 -2.19707,4.79835a9.07424,-9.07424 0 0 1 -0.29698,3.87168c0.13199,0.82768 -0.17874,1.65261 0.0495,2.3483q0.25848,0.46746 0.51971,0.92667l0.41797,0.32722l0.22548,0.44821c0.30247,0.34922 0.69019,0.66544 0.98442,1.02566c1.72961,2.07333 4.27314,4.98808 6.98717,5.9725c0.87718,0.31347 1.91384,0.22823 2.96425,0.39597l3.40696,0.47846c1.25939,0.20348 2.81026,-0.5912 3.50596,-1.05041l0.46746,-0.50046c0.45921,-0.34372 1.2044,-0.69844 1.55637,-1.12466c0.44271,-0.53346 0.84143,-1.2484 1.43263,-1.62236c0.68744,-0.43721 2.21356,-0.23923 3.13474,-0.47571c0.85793,-0.22273 2.19432,-0.6407 2.74152,-1.1769c0.51146,-0.50046 0.83043,-1.29514 1.18515,-1.94684c0.58845,-1.08616 0.37397,-2.84326 0.5912,-4.27039c0.14849,-0.98442 0.16224,-2.42255 0,-3.40422c-0.17049,-1.04216 -0.10724,-1.90834 -0.41797,-2.87076l-0.49496,-0.92667c-0.18423,-0.42896 -0.18698,-0.89642 -0.42071,-1.27314c-0.30522,-0.49496 -0.66819,-0.97067 -0.95967,-1.45188c-0.08524,-0.16774 -0.16774,-0.34922 -0.24748,-0.52246c-1.02291,-1.17965 -2.46104,-2.59853 -3.82768,-3.39872l-0.96242,-0.29972c-0.63245,-0.22548 -1.28139,-0.65445 -1.87809,-0.89917l-1.01192,-0.29698q-0.28323,-0.32997 -0.5692,-0.6517c-0.23648,-0.50321 0.14574,-1.93034 -0.022,-2.57103c-0.14299,-0.53895 -0.94592,-1.57287 -0.6187,-2.07883c0.35747,-0.5472 1.29789,-0.64895 2.12282,-0.42621q1.03666,0.31072 2.07608,0.59945c0.30247,0.14024 0.59395,0.37947 0.96242,0.50596l1.72686,0.34922c0.64345,0.14299 1.40238,0.44271 2.24931,0.29423c0.51696,-0.08249 0.94042,-0.50046 1.55362,-0.37122c0.5582,0.11549 1.1659,0.5527 1.87534,0.69844c0.49771,0.10449 1.09166,-0.033 1.48213,-0.09899l2.12282,0.0275l1.55637,-0.29972c1.19065,-0.19798 2.12832,0.57195 3.33272,0.37122c1.7516,-0.28048 2.77727,-0.75619 3.50596,-2.04858l0.37122,-0.42621q0.15949,-0.53071 0.31897,-1.07516c0.17324,-0.41797 0.47846,-0.67369 0.5692,-1.2484c0.16774,-1.06416 -0.89093,-1.1879 -1.65536,-1.34464c-0.91292,-0.18698 -2.23831,-0.40697 -3.38222,-0.22548c-0.84693,0.12924 -1.93034,0.27223 -2.86526,0.12374c-1.93034,-0.31347 -3.78368,-0.46471 -5.62603,-0.82493l-2.29606,-0.25023a96.24195,-96.24195 0 0 0 -2.96425,-0.82493l-1.8011,-0.39597c-0.52246,-0.16499 -1.03666,-0.38222 -1.60587,-0.50321c-1.69386,-0.36022 -3.84143,-0.32447 -5.77727,-0.32447m319.01181,-4.82585c-1.28414,0.6297 -3.42346,0.51421 -3.87443,2.02658c-0.40422,1.35289 0.52246,1.86984 0.69019,2.81576l-0.12374,4.1274c-0.10449,0.59395 -0.44546,1.33914 -0.32172,2.18332l0.17324,1.70761c-0.00825,0.58295 -0.10174,1.20165 0.0275,1.73236c0.23098,0.97892 0.70669,1.7571 0.86343,2.74427c0.15674,0.97342 -0.91567,1.45188 -1.48213,1.68011c-1.15215,0.45646 -3.09349,1.08891 -4.81485,0.78643c-0.6572,-0.11274 -1.15765,0.09349 -1.45738,-0.36572c-0.35472,-0.5472 -0.05225,-1.42163 -0.17324,-2.21082l-0.14574,-2.84051c-0.16499,-1.07241 -0.38497,-1.92759 -0.54445,-2.94775c-0.12649,-0.77818 0.19248,-1.47938 0.07424,-2.23556c-0.14299,-0.90467 -0.42346,-1.47113 -0.64345,-2.25756q-0.08249,-0.67369 -0.17324,-1.34464c-0.20623,-0.69844 -0.84143,-1.14115 -1.10816,-1.78735l-0.37122,-0.92117l-0.34647,-0.42346c-0.41797,-0.86068 -0.51146,-1.53712 -1.45463,-1.8396c-1.54812,-0.49496 -2.62878,0.70944 -3.45921,1.28964c-1.10541,0.78093 -2.04858,2.63153 -2.32081,4.28689c-0.10174,0.6297 0.14024,1.18515 0.22273,1.68286l0.07424,1.68561l0.42071,2.02383c0.07424,0.53346 0,1.06141 -0.07424,1.55362c-0.10449,0.68194 0.07149,1.53437 0.19798,2.10357l0.39597,1.55362c0.25573,0.59395 0.72319,1.2429 0.78918,2.02383c-0.38222,0.80293 -2.59028,0.5472 -3.55545,0.75894c-0.53621,0.12099 -1.35289,0.27773 -2.00183,0.13474c-1.08616,-0.23923 -2.4363,-0.79743 -3.87443,-0.47571c-0.6517,0.14849 -1.57837,0.38222 -2.02658,0.79193c-0.30797,0.28048 -0.6407,0.6297 -0.98442,0.86618c-0.92117,0.63795 -2.54079,1.03666 -1.90284,2.9725c0.43996,1.33364 2.3813,1.25115 3.85243,0.97342c1.1549,-0.21723 2.68653,0.04125 3.94867,-0.18423l1.70211,-0.39322q1.2374,-0.0495 2.47204,-0.10724c0.71219,-0.11824 1.75435,-0.24473 2.49129,-0.07424c0.89917,0.19798 1.60312,0.91842 2.42255,1.25939c1.50412,0.6242 3.40696,0.89917 5.18332,1.23465c0.92667,0.17874 2.00183,-0.12374 2.78827,-0.28598c0.95967,-0.19798 1.89184,-0.27773 2.71677,-0.50046c1.00092,-0.27223 2.05683,-0.22823 3.13749,-0.44821l5.80201,-0.97342c0.85243,-0.16499 1.97159,-0.17324 2.83776,-0.02475l2.22181,0.10449l2.27131,-0.10449q1.7791,-0.10999 3.55545,-0.21173q1.7406,-0.02475 3.48396,-0.0495q1.26764,-0.07149 2.54079,-0.13199c0.80568,-0.14024 1.61137,-0.25848 2.34555,-0.39872q1.07241,0.0495 2.14757,0.10724c0.87168,-0.17874 1.60312,-0.5637 2.29606,-0.89642c0.37672,-0.17874 0.75069,-0.18973 1.06141,-0.42071l0.98717,-1.26214c0.62145,-0.51421 1.13565,-0.71494 1.58112,-1.44363c0.20623,-0.34097 0.22273,-0.72594 0.29698,-1.2099c0.28873,-1.93034 -3.24473,-2.54354 -5.18607,-2.21082c-2.91476,0.49771 -5.67003,0.76169 -8.61503,1.26214l-1.65536,0q-1.70486,-0.055 -3.40422,-0.10449c-1.28964,0 -2.73327,-0.11824 -3.90467,0.07424c-0.60495,0.10724 -1.38863,0 -1.72686,-0.23373a1.75985,-1.75985 0 0 0 -0.6187,-0.76169c-0.13474,-0.41522 -0.07149,-1.07791 0,-1.55362l0.0275,-2.49954l0.07149,-1.63061c-0.14849,-0.96792 -0.23648,-1.94134 -0.51696,-2.80752l-0.96242,-2.08158c-0.22548,-0.89093 0.07149,-2.12282 -0.15124,-3c-0.17049,-0.69294 -0.89642,-1.36664 -1.45463,-1.65811l-0.51971,-0.18423c-0.6352,-0.43171 -1.20165,-1.05591 -2.22181,-1.05041m-75.80566,-5.23006c0.76169,-0.0165 2.03483,0.06324 2.59303,0.33822c0.75069,0.36572 2.01558,2.24656 1.7791,3.71219c-0.16224,0.96792 -0.51421,1.79285 -0.71769,2.62878c-0.29423,1.1989 0.10174,2.17507 -0.46746,3.15399c-1.05316,1.79835 -4.72685,1.99633 -7.23464,1.49862c-1.10816,-0.22273 -2.4473,-0.11549 -3.18423,-0.73694c-0.41522,-0.34922 -0.89368,-0.84968 -1.08891,-1.42163c-0.31897,-0.92667 0.08249,-3.97342 0.42071,-4.60311c0.10174,-0.18973 1.20165,-1.55362 1.35839,-1.63061c0.41247,-0.19248 0.94042,0.04125 1.42988,-0.05225l0.91567,-0.28873c0.98442,-0.47296 1.64711,-1.51237 2.51604,-2.12832c0.50871,-0.35747 1.06416,-0.21723 1.68011,-0.47021m1.50687,-4.53162c-0.67644,0.32722 -1.56737,0.37947 -2.34555,0.52796l-0.89093,0.0275c-0.53895,0.11549 -0.93217,0.41797 -1.50412,0.52796c-0.77544,0.14849 -1.25664,-0.39597 -1.94959,-0.29423c-0.87718,0.12924 -1.43263,0.49771 -2.15032,0.76444l-1.13565,0.29148l-1.55637,1.31439c-0.54995,0.35197 -1.26489,0.59945 -1.77635,0.99817c-0.40972,0.32172 -1.12191,1.02016 -1.35564,1.49862l-0.37397,1.00092c-0.27773,0.51421 -0.65445,1.14115 -0.83868,1.7351c-0.39872,1.30889 -0.39872,3.88268 -0.04675,5.3428c0.30797,1.27589 0.86618,2.17782 1.50412,3.12924l0.5692,1.12466c0.24748,0.35472 0.57745,0.6352 0.91292,0.89917l0.39322,0.52521c0.5637,0.49496 1.26214,1.07241 1.92484,1.42438c0.67094,0.35197 1.70761,0.11274 2.49679,0.36297c0.72594,0.23373 1.31714,0.6572 2.14757,0.84418l1.67736,0c3.11824,0.52521 5.88726,-0.95967 7.50687,-2.34005c0.25023,-0.21448 0.50871,-0.52796 0.76719,-0.71219c0.43996,-0.31622 1.35289,-0.37397 1.8506,-0.70944c0.60495,-0.40697 1.00092,-1.05591 1.55362,-1.49862l0.42071,-0.28873q0.28598,-0.60495 0.56645,-1.21265l0.54445,-2.02383c0.48671,-1.55912 0.72594,-3.56095 0.37122,-5.47204l-0.49496,-1.89459c-0.13199,-0.6187 -0.09624,-1.1714 -0.24748,-1.7351l-0.76444,-1.47113l-0.41797,-0.37122l-0.29698,-0.47021a7.69936,-7.69936 0 0 1 -3.38222,-1.55362l-2.24931,0c-0.48946,-0.08799 -0.85793,-0.29148 -1.42988,-0.29148m-197.34824,-4.31164c1.41613,0.08249 1.86159,0.78918 2.51879,1.65811l0.44271,0.36572c0.5472,0.84418 1.32814,1.74335 1.55637,2.86526c0.26398,1.31164 -0.31347,2.52154 -0.6187,3.42346l-0.31897,2.00183c-0.31897,0.96242 -1.00917,1.87534 -1.97708,2.15582l-1.28414,0.12924c-1.42713,0.23648 -3.044,-0.48946 -3.80018,-1.02566l-0.34647,-0.36847c-0.71219,-0.47021 -1.42988,-0.84143 -1.67736,-1.7901c-0.17874,-0.68744 -0.15674,-2.61778 0.0495,-3.23648l0.71494,-1.36664l0.39597,-0.36847c0.21173,-0.40697 0.45921,-0.82218 0.76169,-1.13291c0.28048,-0.27773 1.11366,-0.6462 1.31164,-0.91842c0.75344,-1.02566 1.04491,-1.82035 2.27131,-2.3923m68.27679,-4.13015c-1.34464,0.6517 -3.54445,-0.0495 -5.13657,0.29148c-0.47846,0.10174 -0.84143,0.39322 -1.25664,0.52521c-0.90742,0.28598 -1.79835,0.50321 -2.59578,0.92117c-0.41797,0.21998 -0.66819,0.54995 -1.1824,0.73969c-1.28139,0.45371 -3.62695,-0.54995 -3.26123,1.70761c0.24473,1.50412 0.78093,2.67278 2.10082,3.04949q0.50321,0.09074 1.00917,0.18423c0.34097,0.09349 0.69019,0.33822 0.98717,0.47571l1.06141,0.23373c0.59945,0.17874 0.97892,0.53346 1.68011,0.65445c1.04766,0.18973 1.65536,-0.6077 2.78827,-0.39047q1.02841,0.20073 2.05133,0.39047l2.74152,0.21448l2.66728,0.0495c0.67644,0.11274 2.27406,0.24198 3.011,0.10724c1.35289,-0.24748 2.07883,-0.89917 3.45646,-1.1549l3.5802,-0.18423l1.45738,-0.42071c0.46746,-0.08799 0.91842,0.06874 1.28139,0.12924c0.76719,0.13474 1.30339,-0.37947 1.7791,-0.57745l0.96242,-0.34097c0.50321,-0.27223 1.11916,-0.96242 2.07333,-0.65994c0.6517,0.20623 1.73785,1.00917 1.43263,2.05408c-0.16774,0.57195 -0.50596,0.91017 -0.6407,1.52612c-0.10999,0.48671 0.0055,1.03941 -0.07424,1.60312l-0.02475,2.41705l0.34372,2.76352l0,2.55179c0.07974,0.52246 0.16499,1.28139 0.07424,1.89459c-0.10999,0.76994 -0.13749,1.42163 -0.29698,2.13107c-0.24748,1.12741 -0.65445,2.50504 -0.09624,3.63245c0.22548,0.45371 1.2044,1.2484 1.67736,1.44088l0.96242,0.23923c0.59945,0.18973 1.44638,0.43721 2.24656,0.28873c0.58295,-0.10999 1.09166,-0.33272 1.50687,-0.63245c0.21723,-0.15399 0.33822,-0.40422 0.64345,-0.47296c0.70119,-0.15399 0.92392,0.48946 1.43263,0.6022a1.29239,-1.29239 0 0 1 0.81393,-0.10174l0.39322,-0.44821c0.32172,-0.25573 0.77544,-0.50321 1.01192,-0.84143c0.33822,-0.47846 1.07241,-2.28781 1.18515,-2.94225c0.15399,-0.88268 -0.27498,-1.55087 -0.17324,-2.37305c0.35197,-2.79102 -0.14024,-4.62786 -0.73969,-6.83318c-0.22273,-0.83043 -0.35197,-1.70486 -0.56645,-2.4253c-0.26398,-0.87718 0.58295,-1.8506 0.66544,-2.68103c0.14299,-1.40238 -0.69294,-2.32081 -0.93767,-3.42071l-0.07424,-1.17965c-0.13749,-0.87168 -0.42896,-1.61411 -0.96242,-2.05408c-0.35197,-0.29423 -0.80293,-0.73969 -1.18515,-0.94592c-0.84418,-0.45921 -2.67003,-0.47296 -3.72594,-0.18148c-0.73144,0.19798 -1.62786,0.97067 -2.3978,0.78918c-0.5417,-0.13474 -0.80018,-0.75344 -1.53162,-0.65994c-0.98717,0.12374 -1.43538,0.87443 -2.34555,1.10541c-0.75894,0.18973 -1.97159,-0.10174 -2.61503,-0.20623q-0.82493,-0.022 -1.65261,-0.033c-0.87718,-0.16224 -1.57562,-0.48946 -2.37305,-0.70944l-1.68011,-0.13199l-2.41705,-0.44546l-1.55637,-0.13199l-2.3703,-0.68469c-0.92392,-0.22823 -1.91934,-0.06324 -2.9615,-0.23648c-0.74244,-0.12374 -1.40788,-0.20898 -2.24656,-0.21173m211.98801,-3.41521q-0.47021,0.10174 -0.93767,0.20623c-0.34922,0.14024 -0.6517,0.39047 -1.08616,0.47571c-0.76994,0.14849 -1.26489,-0.29148 -2.02658,-0.16224l-2.29606,0.39872c-0.99817,0.17599 -1.72961,-0.39872 -2.71402,-0.21173c-2.15307,0.40697 -4.40513,1.20165 -6.81393,0.78918q-1.2099,0.05225 -2.4198,0.10724q-0.95142,-0.27773 -1.90284,-0.5527c-1.15765,-0.20348 -2.01833,0.38497 -2.88726,0.5527c-0.68194,0.12649 -1.2099,-0.21723 -1.72961,-0.31622c-0.92392,-0.18148 -2.08983,0.11824 -2.76352,0.39597c-0.35197,0.14024 -0.66269,0.45096 -1.08891,0.57745c-0.86618,0.25848 -1.8231,0.49496 -2.36755,1.10541a2.11732,-2.11732 0 0 1 -0.39597,1.65261c0.37397,1.7516 3.86343,2.96975 5.4308,3.65719c0.5637,0.24748 0.98992,0.73144 1.72961,0.95142c0.84968,0.24748 1.50412,-0.33822 2.3703,-0.13749c0.38222,0.09349 0.65994,0.29423 0.96242,0.42346c0.32172,0.13749 0.6022,0.14024 0.96242,0.26398c0.53071,0.17874 1.02016,0.48396 1.60587,0.63245c1.35289,0.34922 2.32631,-0.54445 3.82493,-0.29148l2.56829,0.31622c0.5472,0.09349 1.30339,0.20073 1.92484,0.07974c0.89917,-0.17324 1.40238,-0.5967 2.24931,-0.76444c0.92667,-0.17874 1.86984,-0.06324 2.73877,-0.21173l1.2099,0.03025c1.09441,-0.18973 1.83685,-0.63245 2.88726,-0.87168c0.5747,-0.12924 1.77085,-0.15399 2.37305,-0.05225l1.08616,0.07699c0.71769,-0.12374 1.44088,-0.48671 2.19707,-0.13199c0.34647,0.16774 0.83043,0.50046 0.71494,1.1604c-0.13474,0.78918 -0.75069,1.30614 -0.56645,2.46929l0.29423,1.60862c0.13474,0.44271 0.48671,0.99817 0.32172,1.65536c-0.17324,0.68744 -0.72044,1.22365 -0.46746,2.26306c0.12374,0.50871 0.86343,1.28689 0.76444,1.84235c-0.10999,0.5967 -0.48946,0.64895 -0.76444,1.02291a3.5747,-3.5747 0 0 1 -0.51971,1.13291c-0.18148,0.73969 0.09899,1.7516 0.24748,2.31256c0.26673,1.01192 0.45371,1.80385 0.93767,2.55179l0.37122,0.34097c0.50871,0.76719 0.75894,1.35289 1.60312,1.76535l1.97433,0.44821c0.37397,0.055 0.83868,-0.14299 1.23465,-0.0275c0.53346,0.15399 0.97617,0.48396 1.55637,0.63245c1.16865,0.29148 2.3703,-0.52246 2.989,-0.97617c1.11091,-0.81668 0.6407,-3.07699 0.91292,-4.81485c0.19248,-1.2319 0.52796,-1.99083 0.71769,-3.17873c0.31347,-1.98533 -0.37947,-4.61686 -0.74244,-6.20623c-0.26673,-1.1604 -0.27223,-2.46379 -0.27223,-3.91842c0,-0.49221 -0.07424,-0.94042 0.02475,-1.36939c0.20348,-0.87993 0.85243,-2.00183 0.42071,-3.04949c-0.31622,-0.76444 -1.08341,-1.05591 -1.45738,-1.71311c-0.25023,-0.43996 -0.47021,-0.88818 -0.86343,-1.1549c-0.50321,-0.34097 -1.38038,-0.48121 -1.92484,-0.81668l-0.84143,-0.57745l-0.91292,-0.31897c-0.31072,-0.14574 -0.5747,-0.42071 -0.93767,-0.54995l-1.1384,-0.23648c-0.73969,-0.28873 -1.53712,-0.83593 -2.3428,-1.05316c-1.00092,-0.26398 -1.76535,0.36297 -2.69202,0.18148c-1.01741,-0.18973 -2.09257,-0.41522 -3.33272,-0.41522m-127.96054,-0.5802l-2.84051,0.10449l-5.48029,0.39597q-0.86618,0.01375 -1.72686,0.02475l-2.76627,0.26123c-0.77269,0.25298 -1.38588,0.86618 -2.29606,1.00092c-0.43171,0.06324 -0.89093,-0.20898 -1.25939,-0.28873q-0.70394,-0.044 -1.40513,-0.07974c-0.77818,-0.13749 -1.61961,0.07974 -2.22456,0.23923c-0.23648,0.06049 -0.55545,0.23373 -0.88818,0.15399a123.73965,-123.73965 0 0 0 -1.58112,-0.6077c-0.63245,-0.14574 -1.39413,0.033 -1.94959,0.13474l-2.66728,0.18423q-1.15215,0.0385 -2.29331,0.08249l-1.75435,0.6022c-0.6352,0.13199 -1.13016,-0.30522 -1.60587,-0.42071c-0.5637,-0.13749 -1.12466,0.06324 -1.58112,0.18423l-1.05866,0.18423c-0.50046,0.15124 -1.34464,0.83868 -1.1604,1.68286c0.29148,1.36389 2.54904,1.27039 3.52795,1.97433c0.49771,0.35197 0.82768,0.96517 1.45738,1.1824c1.20165,0.41797 2.17507,-0.43721 2.91476,0.60495c0.12099,0.17049 0.23923,0.29148 0.27223,0.5802c0.10724,0.97342 -0.31622,1.8066 -0.51971,2.52429l-0.27223,1.28964l-0.88818,1.65811c-0.25848,0.83868 0.14024,1.78185 0,2.73327c-0.18423,1.2154 0.17049,1.98533 0.44546,2.83776l0.39322,2.00458c0.23923,0.84693 0.71494,1.41338 1.1604,2.04858c1.40513,1.99083 3.5417,0.74794 5.65353,0.34372l1.45738,0c0.40697,-0.08249 0.89368,-0.26948 1.40788,-0.15949c0.5582,0.11549 1.03391,0.39047 1.50687,0.5527c0.82493,0.28323 1.66086,0.40697 2.59028,0.5747c1.15765,0.21998 2.42255,-0.09899 3.33272,-0.28598l1.72961,-0.26398l0.93767,-0.41797c1.1769,-0.31897 2.70027,0.055 3.80293,-0.29148c0.79193,-0.25023 1.43263,-0.84693 2.17232,-1.15765c0.35472,-0.14849 0.72044,-0.06599 1.13565,-0.15674l1.55637,-0.36572q0.5637,-0.05225 1.13291,-0.10999c0.48671,-0.12099 1.1549,-0.37122 1.80385,-0.26123c0.69019,0.12099 1.76535,0.37122 2.51879,0.23373q0.93767,-0.20623 1.87534,-0.41797c1.1934,-0.30247 2.51054,0.34647 3.80293,0.07699c2.00733,-0.41247 2.49129,-1.39688 3.55545,-2.75802c0.36847,-0.47571 0.92667,-1.34739 0.69019,-2.18607c-0.50871,-1.81485 -5.30706,-0.43721 -7.06141,-0.78643q-0.68744,-0.23373 -1.38313,-0.47296l-2.17232,-0.31897c-0.50321,-0.11549 -1.05041,-0.28598 -1.62786,-0.39047c-0.83318,-0.15674 -2.60678,-0.10724 -3.25848,0.12924q-0.72869,0.27498 -1.45738,0.55545l-1.25939,0.23648q-4.28414,0.45646 -8.56553,0.91567l-5.50779,0.21173c-0.49771,0.09074 -1.46013,0.09899 -1.65261,-0.23923c-0.27773,-0.31897 -0.03025,-0.82493 -0.09899,-1.31439l-0.32172,-1.78735l0.44546,-1.47113c0.08799,-0.5472 -0.28048,-1.06966 0,-1.52887c0.45371,-0.14299 0.97067,-0.50321 1.67736,-0.36847l1.35839,0.34372l1.97433,-0.13474q0.69294,0.0275 1.38313,0.05775c1.01467,-0.18698 1.53437,-0.98167 2.29606,-1.15765c0.69844,-0.16499 1.15215,0.29148 1.87809,0.15949c0.97067,-0.18148 2.10357,-0.34922 3.15949,-0.52521l1.90009,-0.10999c0.45646,-0.09624 0.87443,-0.25848 1.38313,-0.34097c0.90467,-0.14849 1.43538,0.50046 2.41705,0.31347c0.99542,-0.18148 1.50687,-0.85793 2.4198,-1.04766c0.78643,-0.16224 1.20715,0.41247 1.85334,0.52521c0.72044,0.12099 1.03391,-0.36297 1.48213,-0.5527l1.1604,-0.31347c0.77818,-0.33822 0.91842,-1.05041 1.38313,-1.71311c0.14024,-0.20073 0.37397,-0.27223 0.56645,-0.42071c0.48396,-0.37122 0.91017,-0.74244 1.13565,-1.39138c0.29698,-0.85793 0.14024,-2.11732 -0.46746,-2.47479c-0.59945,-0.34647 -1.66086,0.0275 -2.44455,-0.13199c-2.22181,-0.44546 -4.46013,-0.68744 -7.2099,-0.68194m-156.64889,-0.02475c-0.81393,0.34647 -2.13932,-0.05225 -2.91476,0.31347c-0.69569,0.32997 -1.44913,1.77085 -2.12282,2.31531c-0.25298,0.20623 -0.5747,0.29148 -0.83868,0.50046a38.49678,-38.49678 0 0 1 -2.54354,2.12832c-1.1934,1.09991 -2.04033,2.55179 -2.989,3.91842a13.74885,-13.74885 0 0 0 -0.39322,0.41797c-0.34647,0.51971 -0.5802,1.09441 -0.89093,1.63336c-0.17874,0.31347 -0.45371,0.57195 -0.5912,0.95142c-0.23923,0.65445 -0.42346,2.29881 -0.29423,3.15399c0.21723,1.47663 -0.04125,3.14574 0.39322,4.44638c0.74519,2.21631 2.82126,3.83318 4.27039,5.36205l0.32447,0.47571c0.36297,0.31072 0.70119,0.56095 1.08341,0.86618l0.37122,0.47846l1.03666,0.44546c0.47296,0.28048 1.1714,0.74519 1.65536,0.94317l1.03391,0.28873l0.96242,0.47846c0.6187,0.18973 1.2154,0.20898 1.90284,0.33822c0.86618,0.16774 2.16132,0.38222 3.11274,0.13199c0.82218,-0.21723 1.49862,-0.68744 2.24656,-0.94867c0.52246,-0.18148 1.13291,-0.15674 1.60312,-0.39322c0.39047,-0.19248 0.76994,-0.5637 1.21265,-0.73419c0.6572,-0.26123 1.46838,0.02475 2.29331,-0.13474q0.5912,-0.17874 1.18515,-0.36572c0.21998,-0.10174 0.28323,-0.36847 0.44271,-0.52796l0.42346,-0.28598q0.14574,-0.22823 0.29423,-0.44821l0.39597,-0.26398c0.24198,-0.32447 0.68469,-0.93217 1.01192,-1.12741c0.51971,-0.31897 1.05591,-0.59395 1.52887,-0.97892l0.29698,-0.47021c0.37672,-0.51696 0.87168,-1.05866 1.18515,-1.63061l0.17324,-0.50046l0.37122,-0.34372c0.25298,-0.34922 0.42071,-0.71219 0.64345,-1.10541c0.30247,-0.53895 1.08616,-1.51512 0.69019,-2.23556c-0.44821,-0.17874 -1.36939,-0.22548 -1.48213,-0.78643c-0.11549,-0.5692 0.5802,-1.09991 0.76444,-1.44638q0.08799,-0.35472 0.17324,-0.71219c0.35747,-1.87259 -0.53071,-3.21173 -1.13565,-4.2099c-0.19523,-0.31622 -0.23923,-0.73969 -0.42071,-1.04766c-0.65994,-1.14115 -1.54262,-2.20532 -2.24656,-3.31347q-0.08249,-0.23923 -0.17324,-0.47571l-0.36847,-0.36847c-0.41247,-0.51146 -0.65445,-1.2539 -1.1604,-1.65536c-1.42713,-1.1384 -3.22548,-1.56462 -5.38405,-1.95234c-0.46471,-0.07974 -1.13565,-0.13474 -1.60312,-0.02475c-0.75069,0.18148 -1.64711,0.74244 -2.61778,0.50321c-1.29789,-0.32172 -1.26764,-1.60587 -2.91201,-1.60312m227.37023,-0.50046c-1.07241,0.50321 -1.78185,0.94592 -2.22181,2.10357c-0.23648,0.61595 -0.11274,1.29239 -0.22548,2.02658l-0.04675,2.63153l-0.32172,2.02658c-0.15124,0.53895 -0.59945,0.87168 -0.81668,1.30614l-0.29423,1.05591c-0.27773,0.73419 -0.64895,1.42438 -0.83868,2.26031c-0.15674,0.69844 -0.055,1.72411 0,2.3703l0.022,2.07883c0.13199,0.62145 0.40422,1.14115 0.51971,1.8121c0.06049,0.36022 -0.06874,0.67919 -0.12374,0.94867c-0.21448,1.08066 -0.45371,1.99083 -0.66544,2.9945c-0.23648,1.11091 0.09074,2.21906 0.24748,3.15674l-0.09899,1.68286c-0.10724,0.69844 0.34097,3.05774 0.5417,3.42071c0.38222,0.68194 1.16865,1.12466 1.94959,1.36939c0.37397,0.11274 1.03941,0.01925 1.31164,0.26123c0.26398,0.23923 0.72594,1.03666 0.93492,1.1604c0.53071,0.29698 1.15765,0 1.8286,0.12924c0.52246,0.10174 1.04491,0.45921 1.72961,0.31622c0.74244,-0.15399 1.65261,-0.80568 1.33364,-1.94684c-0.11824,-0.41797 -0.67094,-0.82218 -0.49496,-1.39413c0.09899,-0.32997 0.40697,-0.48671 0.5417,-0.76169c0.26673,-0.52521 0.08249,-1.29239 0.22273,-1.97433c0.17599,-0.85518 0.63795,-1.34464 0.79193,-2.15582c0.17599,-0.93492 -0.45096,-1.43263 -0.5692,-2.10357c-0.12374,-0.69844 0.68469,-1.59762 0.83868,-2.23556c0.16224,-0.67094 -0.22548,-1.28689 0,-1.86709c0.28873,-0.74794 1.17965,-0.23923 1.92759,-0.37122l2.54354,-0.6572c0.66819,-0.13749 1.44638,0.07699 2.12007,-0.0495c0.5417,-0.10449 1.03941,-0.32997 1.41063,-0.6297l0.31897,-0.58295c0.55545,-0.75344 1.42163,-1.1494 1.7791,-2.12832c0.29972,-0.82493 -0.13199,-1.70211 -0.32172,-2.26581c-0.14574,-0.42621 -0.11549,-0.90192 -0.34647,-1.2319c-0.25298,-0.36572 -1.25939,-0.68744 -1.70211,-0.89368c-0.35472,-0.16774 -0.61595,-0.5472 -1.01467,-0.68469c-1.00642,-0.34647 -2.84601,-0.43446 -4.09716,-0.21173c-0.96792,0.17324 -1.98533,0.07699 -2.88726,0.23648c-0.24748,0.044 -0.73694,-0.011 -0.86618,-0.12924c-0.53895,-0.52246 0.0495,-2.27131 -0.14849,-3.28598q-0.18423,-0.91567 -0.37122,-1.8176c-0.16774,-1.04491 0.03025,-2.3813 -0.44271,-3.15674c-0.50596,-0.83043 -1.46563,-1.16315 -2.24656,-1.70761c-0.54995,-0.39047 -0.85518,-1.06966 -1.7516,-1.10541m-192.04118,-1.60587l-0.47021,0.12924c-0.47846,0.25848 -0.77269,0.63795 -1.42988,0.76169q-0.35747,-0.033 -0.71769,-0.07699c-0.84968,-0.17049 -1.55637,0.055 -1.90009,0.57745c-0.36297,0.56095 -0.48671,2.54629 -0.6407,3.39322c-0.25573,1.39963 -0.37397,2.71952 -0.59395,4.10266l-0.12374,2.3703l0.0495,3.5747c-0.11549,0.79743 -0.38222,1.87809 -0.19798,2.81851c0.14849,0.74794 0.77544,1.2484 0.69019,2.10357c-0.08524,0.91842 -0.34097,1.49587 -0.51696,2.31531l-0.24748,2.73327c-0.14299,0.87443 -0.06599,1.99633 0.32172,2.55179c0.23373,0.33547 0.65994,0.38772 0.98992,0.63245c0.33822,0.24473 0.6462,0.69019 1.01192,0.92117c0.50596,0.31897 1.2539,0.38222 1.92209,0.49771l1.8066,-0.15674c0.84143,0.15949 1.27039,1.31989 2.19432,1.12741c1.58937,-0.32172 1.73236,-2.22731 2.17507,-3.80843l0.26948,-0.50321c0.24198,-0.54445 0.38772,-1.2209 0.49496,-1.86984c0.16499,-1.00917 -0.40697,-1.7351 -0.24748,-2.65353c0.07149,-0.41522 0.47846,-1.19615 0.69019,-1.52337c0.28873,-0.44821 0.84418,-1.11641 1.70486,-0.84143c0.64895,0.20073 0.97892,1.05591 1.97433,0.84143c0.62695,-0.13749 0.98442,-0.52796 1.63061,-0.6572c0.70394,-0.14574 1.40238,0.15399 1.97433,0.26123c0.58845,0.10999 1.09166,-0.13749 1.47938,-0.26123c1.39138,-0.45096 2.17507,-0.85793 2.64253,-2.28781c0.28048,-0.85518 0.29148,-2.07333 -0.17049,-2.78827c-0.25848,-0.40697 -0.77818,-0.59395 -1.18515,-0.84418c-0.29423,-0.17874 -0.52246,-0.51971 -0.86343,-0.6572c-0.77544,-0.30522 -1.75985,-0.26948 -2.64528,-0.42346l-1.72686,-0.022l-0.93767,0l-2.12282,-0.37397c-1.04216,-0.18698 -2.59028,0.78368 -3.20898,-0.0495c-0.95417,-1.27589 -0.32172,-3.27498 0.0495,-4.8396c0.09349,-0.40422 0.28873,-0.89368 0.19798,-1.47113q-0.15124,-0.65994 -0.29698,-1.31714l-1.87809,-2.28781c-0.59945,-1.03391 -0.51696,-2.01558 -2.14757,-1.99908m162.46191,-1.02291l-0.79193,0.31347c-0.67094,0.42621 -1.38863,0.96517 -2.16957,1.31439c-0.70119,0.31347 -1.52887,0.26123 -1.82585,0.97067c-0.21173,0.49771 0,1.2044 -0.12649,1.75985c-0.09074,0.40422 -0.40147,0.6187 -0.49496,1.00367c-0.16499,0.70119 0.78368,1.1879 0.37397,1.78735c-0.19523,0.38772 -0.85518,0.29148 -1.35839,0.29148c-1.08341,0 -2.23006,0.19248 -3.21173,-0.055c-0.97342,-0.24198 -2.3538,-0.24473 -3.23098,0.13474l-0.91567,0.49771c-0.80843,0.32172 -1.61411,0.45921 -2.37305,0.81668l-0.46471,0.42071c-0.32447,0.23373 -0.73419,0.42071 -1.06416,0.62695c-0.68469,0.43721 -2.02933,0.78368 -1.82585,2.10907c0.11274,0.72044 0.58845,0.95142 1.06141,1.28689l0.29423,0.34372c0.45921,0.36297 1.1989,0.59395 1.85334,0.70669c0.56645,0.10449 1.10541,-0.07974 1.50687,-0.18148c0.81393,-0.20073 1.98258,-0.37947 2.9615,-0.18423c1.50687,0.30247 3.53895,0.93492 5.55729,0.5802c1.03666,-0.18698 1.8396,-0.45371 2.86251,-0.63245c0.73694,-0.12924 1.45188,0.18698 1.97708,0.34097c0.78093,0.23098 2.11457,0.34647 3.03575,0.13199c0.65445,-0.15124 1.45463,-0.36572 1.97159,-0.71219c0.33822,-0.22273 0.5802,-0.5417 1.01467,-0.71219c0.53895,-0.20348 1.14665,-0.04125 1.8286,-0.15399c0.75619,-0.12649 1.35014,-0.31622 2.05133,-0.47021c0.72869,-0.15949 1.47663,0.17599 2.07058,0.28598c1.1824,0.21723 3.47021,0.12924 4.34464,-0.23648c0.36022,-0.15124 0.62695,-0.54445 0.98992,-0.73694c0.42071,-0.22273 0.91567,-0.41522 1.15765,-0.81393l0.12374,-0.6572c0.21723,-1.37488 -0.91842,-1.51512 -1.62786,-1.97159c-0.26123,-0.16774 -0.34097,-0.39597 -0.54445,-0.6077c-0.5472,-0.57195 -1.69111,-1.18515 -2.61503,-1.36664c-1.83135,-0.35472 -4.15215,1.00917 -5.60403,0.055c-0.76169,-0.50321 -0.17324,-1.51512 -0.59395,-2.21356c-0.24473,-0.40147 -0.73694,-0.64345 -0.98992,-1.02291q-0.10999,-0.26673 -0.21998,-0.52521c-0.29972,-0.42346 -0.89642,-1.10541 -1.30889,-1.39688c-0.47571,-0.33272 -1.1824,-0.29148 -1.75435,-0.52246c-0.6077,-0.25573 -1.01192,-0.60495 -1.92484,-0.60495m-221.35648,0.09624c-1.02291,0.51421 -1.93034,0.6297 -3.35747,0.39597q-2.03483,-0.011 -4.07241,-0.02475q-1.26214,-0.04675 -2.51879,-0.09899q-1.25939,-0.0165 -2.51879,-0.02475l-3.15949,0.14849l-2.12282,0.055c-0.78368,-0.12649 -2.23556,-0.20073 -3.0385,-0.055l-1.30614,0.20073q-0.80843,0.25573 -1.60587,0.50046q-2.44455,0.28873 -4.88909,0.57195c-1.02291,0.17324 -2.29606,0.03025 -3.20898,-0.12374q-0.64345,-0.03575 -1.28414,-0.07424l-7.01191,-0.52796c-0.95142,-0.14849 -2.69752,0.03575 -3.5307,0.17874c-1.24565,0.20623 -2.54079,0.09899 -3.70394,0.34922c-1.08066,0.23373 -2.13107,0.70669 -3.16224,0.99542a46.74609,-46.74609 0 0 0 -1.03391,0.22823c-0.31072,0.12924 -0.5527,0.38222 -0.81393,0.54995c-0.67094,0.43171 -1.31989,0.50046 -1.50687,1.42713c-0.07149,0.34097 0.04675,0.68194 0.12099,0.89917c0.51146,1.47388 2.54354,0.84143 3.90467,1.44638c0.74794,0.33547 1.62236,0.98167 2.86251,0.78093c0.78643,-0.13474 1.46838,-0.59945 2.46929,-0.43171c1.09716,0.18973 2.07058,0.45371 3.25848,0.65445c1.25664,0.20348 2.55454,-0.24748 3.72869,-0.27773c1.91934,-0.044 5.56553,0.0275 6.12099,1.2209c0.39597,0.85793 -0.49496,1.33639 -0.81393,1.72686l-0.29698,0.67369c-0.44546,0.6187 -0.82493,1.26214 -1.28139,1.90284l-0.37122,0.32172c-0.36847,0.50046 -0.66544,1.02291 -1.03666,1.52612c-0.29148,0.39322 -0.71219,0.76994 -0.98992,1.17415l-0.19523,0.42346l-0.32172,0.22548l-0.69019,1.07241c-0.21173,0.29698 -0.51971,0.58295 -0.71769,0.87168l-0.44271,1.1824a10.99908,-10.99908 0 0 0 -0.6187,0.74519l-0.37122,0.24748c-0.50871,0.73144 -1.05866,1.42163 -1.60312,2.12557c-0.32172,0.42071 -0.80018,0.83043 -1.03941,1.32539a5.49954,-5.49954 0 0 1 -0.51696,1.47388c-0.08249,0.5417 1.05866,3.11549 1.30889,3.37397c0.40147,0.42071 1.21265,0.22823 1.90284,0.37122l1.35564,0.35472c1.42988,0.29148 3.17048,-0.42896 4.17415,-0.84693c1.24015,-0.52521 1.33914,-2.15307 2.02108,-3.25298c0.42621,-0.68194 1.63611,-1.8066 2.27406,-2.32081c0.35197,-0.28323 0.80568,-0.5802 1.03666,-0.97342c0.26673,-0.45646 0.35472,-1.06416 0.59395,-1.55362l0.34372,-0.39872l1.01192,-2.32356c0.23648,-0.42896 0.67094,-0.77544 0.96517,-1.1494c0.40147,-0.51421 0.86068,-1.19065 1.52887,-1.42713c0.46471,-0.15674 1.1549,0.33547 1.45738,0.50321c0.45371,0.25298 1.77085,1.00917 2.04858,1.37488c0.23923,0.31347 0.34647,0.73144 0.5912,1.05041c0.44271,0.5747 1.10266,1.03391 1.68011,1.47388l0.39597,0.49771c0.87718,0.67919 1.68286,1.45463 2.64253,2.05408c0.53071,0.32722 1.15765,0.47021 1.65261,0.82218l0.42071,0.49771c0.47021,0.36847 0.98167,0.6242 1.47938,0.97617l0.39597,0.49496c0.47021,0.34097 0.86618,0.75894 1.30889,1.12741q0.46746,0.25573 0.93767,0.49771c0.53895,0.35472 1.65536,1.42988 2.69202,0.90192c0.47571,-0.24198 0.63795,-0.88818 1.06141,-1.1714c0.35747,-0.23923 0.83868,-0.37122 1.13565,-0.67644l0.51971,-1.05041c0.34647,-0.6352 0.95692,-0.94592 1.15765,-1.72136c0.30797,-1.1769 -0.41522,-2.54354 -0.73969,-3.40422l-0.34647,-1.1494c-0.21448,-0.34097 -0.57745,-0.66269 -0.81393,-0.99542l-0.51696,-0.89917l-0.42071,-0.34922a6.04949,-6.04949 0 0 1 -0.94042,-1.05316a16.49862,-16.49862 0 0 1 -1.28139,-0.94867l-0.44546,-0.22548l-0.22273,-0.27223l-0.44271,-0.25298l-0.27223,-0.39872c-0.37397,-0.28048 -0.75069,-0.53071 -1.08616,-0.84968l-0.29698,-0.40147c-0.75894,-0.6187 -1.52337,-1.1989 -2.26856,-1.8451l-0.29972,-0.34922c-0.30522,-0.20073 -1.2319,-0.73694 -1.11091,-1.20165c0.06599,-0.44271 0.67369,-0.57195 1.18515,-0.47846c0.76169,0.15124 1.60312,0.15674 2.46929,0.30522c0.32172,0.055 0.80568,0.14299 1.2099,0.07424c0.6462,-0.11274 1.13291,-0.62695 1.90284,-0.47571c1.93859,0.38497 4.32264,0.94592 6.5417,0.50046c1.00367,-0.20348 2.18057,0.033 2.88726,-0.42621c0.86893,-0.56095 2.00733,-2.10632 1.43263,-3.67369l-0.5692,-1.16865c-0.11274,-0.18698 -0.29423,-0.30247 -0.36847,-0.53346c-0.37947,-1.16865 -1.12466,-3.03575 -2.59303,-3.0165"/>
    </g>
   </g>
  </g>
 </g>
</svg>