<svg xmlns="http://www.w3.org/2000/svg" width="494.47125mm" height="84.368446mm" viewBox="0 0 494.47125 84.368446"><g transform="translate(81.317 -126.26)"><circle cx="-38.896851" cy="169.3147" r="39.560635" style="fill:#fff;stroke-width:.264583;stroke-miterlimit:2.613"/><g style="stroke-width:.128293"><g style="stroke-width:.128293"><path d="M0 0a2.597 2.597 0 0 0 2.592-2.593A2.597 2.597 0 0 0 0-5.185a2.597 2.597 0 0 0-2.592 2.592A2.597 2.597 0 0 0 0 0m-7.849 0a2.6 2.6 0 0 0 2.593-2.593 2.597 2.597 0 0 0-2.593-2.592 2.596 2.596 0 0 0-2.591 2.592A2.597 2.597 0 0 0-7.849 0m2.553-8.629c.004.193.017.422-.055.541-.071.119-.189.126-.32.051s-.245-.252-.367-.403l-4.749-5.898c-.295-.365-.533-.789-.618-1.192a1.8 1.8 0 0 1 .113-1.096c.14-.319.364-.587.667-.818.304-.233.687-.428 1.089-.622.404-.194.828-.385 1.215-.512s.74-.188 1.014-.19c.275-.002.474.056.713.173.24.118.521.297.721.548.201.251.321.575.391.919.07.343.05.704.057 1.062zm2.743 0c-.003.193-.016.422.055.541s.189.126.321.051c.131-.076.244-.252.366-.403l4.749-5.898c.295-.365.534-.789.618-1.192a1.8 1.8 0 0 0-.112-1.096 2.07 2.07 0 0 0-.668-.818c-.303-.233-.686-.428-1.089-.622a10 10 0 0 0-1.214-.512 3.5 3.5 0 0 0-1.015-.19 1.5 1.5 0 0 0-.713.173c-.239.118-.521.297-.722.548s-.319.575-.389.919c-.071.343-.051.704-.057 1.062zm-6.247.733q.049.19-.176.26c-.15.048-.389.018-.612.018h-4.31c-.78 0-1.542-.239-1.926-.643s-.602-1.131-.376-1.781l.475-1.361c.248-.712 1.059-1.075 1.621-1.15.561-.075 1.267.178 1.746.699l3.26 3.55c.122.133.266.28.298.408m9.751 0q-.048.19.176.26c.15.048.39.018.613.018h4.309c.781 0 1.542-.239 1.926-.643s.603-1.131.376-1.781l-.475-1.361c-.249-.712-1.059-1.075-1.62-1.15s-1.267.178-1.746.699l-3.26 3.55c-.123.133-.267.28-.299.408m-15.317 3.545c-.072-.289-.114-.408-.178-.513a1.041 1.041 0 0 0-1.304-.42 1.06 1.06 0 0 0-.532.502.9.9 0 0 0-.105.387c-.007.156.022.347.104.696.083.347.218.853.389 1.349q.258.745.609 1.452.35.707.784 1.369a13 13 0 0 0 2.048 2.406q.585.538 1.228.999.644.458 1.338.836.693.38 1.427.666c.489.189.991.343 1.371.45s.639.166.83.179a.9.9 0 0 0 .431-.07c.115-.05.224-.115.316-.198.308-.287.398-.656.318-1.018a1.1 1.1 0 0 0-.146-.341 1.06 1.06 0 0 0-.622-.439c-.149-.044-.336-.078-.535-.125a7 7 0 0 1-.736-.224 13 13 0 0 1-1.198-.491q-.642-.308-1.238-.702A10.8 10.8 0 0 1-11.92.526a10.6 10.6 0 0 1-1.586-2.363 9.5 9.5 0 0 1-.542-1.312c-.144-.45-.246-.912-.318-1.202m20.884 0c.072-.289.114-.408.178-.513a1.043 1.043 0 0 1 1.614-.218q.136.13.222.3a.9.9 0 0 1 .105.387c.006.156-.023.347-.105.696-.082.347-.218.853-.388 1.349q-.258.745-.61 1.452a13 13 0 0 1-1.733 2.633q-.514.604-1.098 1.142t-1.229.999a13 13 0 0 1-1.337.836 12 12 0 0 1-1.427.666c-.489.189-.991.343-1.372.45-.38.107-.639.166-.83.179a.9.9 0 0 1-.43-.07 1.2 1.2 0 0 1-.317-.198 1.04 1.04 0 0 1-.318-1.018 1.04 1.04 0 0 1 .768-.78c.15-.044.337-.078.535-.125.199-.047.41-.108.737-.224s.769-.287 1.198-.491q.641-.308 1.237-.702A10.9 10.9 0 0 0 4.945-.604q.395-.595.712-1.233c.211-.425.398-.862.542-1.312s.246-.912.319-1.202M-3.924 8.736c8.449 0 15.341-6.89 15.341-15.34 0-8.451-6.892-15.342-15.341-15.342-8.451 0-15.342 6.891-15.342 15.342 0 8.45 6.891 15.34 15.342 15.34" style="fill:#79000e;fill-opacity:1;fill-rule:evenodd;stroke:none;stroke-width:.128293" transform="matrix(2.74977 0 0 -2.74977 -28.34 150.282)"/></g><g style="stroke-width:.128293"><path d="M0 0c.435-.021.705-.188.97-.373.096-.066.2-.093.287-.163.356-.285.494-.929.386-1.617-.041-.262.013-.51-.063-.727a3.1 3.1 0 0 0-.745-1.182c-.096-.093-.236-.133-.35-.209-.13-.084-.282-.231-.423-.291-.511-.217-1.199-.198-1.759-.019l-.35.192c-.218.094-.428.153-.629.273l-.135.145c-.134.103-.303.201-.404.337-.275.37-.348 1.314-.188 1.916.043.162.15.316.243.437l.161.155c.144.315.009.6.332.763.163.082.912.288 1.149.226.217-.054.436-.277.719-.217.216.044.378.181.538.282.074.045.172.035.261.072m70.655.299c.741.007.737-.457.926-1.034.065-.202.213-.502.134-.812-.069-.267-.289-.745-.422-.976l-.153-.163c-.097-.168-.058-.447-.17-.592-.154-.203-.756-.46-1.131-.298-.776.335-1.536.732-2.2 1.195-.263.184-.615.354-.764.652-.17.338.052.84.296.917.167.055.357-.003.495.068.413.212.555.697 1.023.86.26.091.631.015.898-.028.291-.048.892.113 1.068.211M22.917 1.924c1.099.015 1.578-.122 2.02-.821.125-.199.324-.312.386-.584.06-.263-.045-.515-.044-.776 0-.301.108-.722 0-.995-.08-.201-.438-.908-.575-1.022-.29-.244-.696-.376-1.014-.584-.19-.125-.322-.341-.539-.451-.182-.09-1.434-.04-1.608.031l-.35.238c-.128.09-.291.146-.377.277-.151.23-.142.596-.215.909-.05.212-.161.507-.099.794.043.2.166.309.215.507.043.173-.007.378.054.526.069.166.232.276.333.412.1.135.176.302.277.431q.19.366.378.736c.239.191.611.258.943.344zm46.769.948-.279-.039c-.221-.072-.4-.189-.655-.238l-.539-.049c-.283-.068-.488-.23-.799-.286-.353-.067-.525.221-.871.142-.445-.1-.717-.475-1.122-.631q-.234-.074-.467-.152c-.217-.061-.444-.039-.601-.152-.217-.158-.391-.456-.567-.662-.282-.33-.738-.709-.907-1.138-.073-.187-.067-.407-.116-.621-.034-.15-.125-.323-.09-.536.098-.587.344-.984.584-1.406l.071-.172.136-.097c.12-.116.217-.314.331-.439l.162-.134.341-.536c.115-.157.323-.253.45-.402.167-.198.302-.442.52-.583.131-.086.278-.104.413-.192.197-.126.354-.32.592-.42.301-.128.778-.097 1.114-.02.112.027.271.097.431.059.336-.083.491-.323.835-.394l.961.01c.267-.048.557-.198.87-.134.532.109.928.36 1.303.641l.269.258c.144.106.313.154.449.268.151.125.191.337.296.516.118.201.282.35.467.479.253.177.6-.026.934.04q.126.036.252.076c.134.097.632.646.691.801.102.273-.015.652.044.958.058.295.208.433.261.756.085.516-.204.786-.323 1.118-.118.329-.08.804-.198 1.13-.079.217-.274.46-.412.63l-.109.182q-.08.038-.161.078l-.387.285-.116.202c-.129.2-.293.414-.503.527-.247.132-.762.324-1.122.219-.252-.073-.68-.352-1.05-.277-.245.05-.336.214-.522.296-.208.094-.594.039-.861.039m26.562.793c-.246-.102-.487-.09-.727-.181-.212-.083-.382-.286-.593-.336l-2.217.009-1.841-.104q-.301.058-.602.114l-.592.011c-.268.083-.468.343-.862.267-.362-.069-.679-.192-1.06-.258-.344-.058-.609.144-.951.067-.654-.149-1.129-.49-1.76-.641l-.44-.037c-.21-.05-.384-.154-.584-.202l-.646-.038c-.14-.036-.243-.121-.359-.172-.118-.053-.258-.05-.386-.105-.191-.085-.374-.269-.539-.393-.196-.145-.632-.449-.548-.833.104-.468.621-.251 1.095-.335.494-.085.9.093 1.284.193.321.081.714.037 1.051.105l.449.105c.25.017.476-.112.709-.154.395-.068.7.148 1.06.049q.291-.11.583-.22l.782-.067c.155-.034.332-.138.539-.095l.368.105.763.047c.441.033.948-.057 1.365.048.753.191 1.741.577 2.711.411.22-.038.45.017.638-.047.258-.09.282-.413.43-.622.125-.175.428-.222.53-.413.093-.172-.041-.373-.009-.563l.099-.393c.06-.34-.073-.625-.116-.898s.123-.5.161-.746c.022-.145-.042-.295-.063-.411-.034-.194.019-.376.045-.536.023-.142-.025-.299-.045-.412a1.6 1.6 0 0 1 .027-.612c.095-.378.421-.968.745-1.091q.216-.037.431-.075c.23-.065.537-.166.835-.097l.468.202q.184.036.367.076c.681.265 1.172.672 1.356 1.473.053.229-.051.483.009.699.053.188.185.338.224.574.042.242-.096.388-.054.631l.18.458c.08.376-.082.758-.135 1.082q-.004.316-.009.631c-.052.263-.206.377-.287.593l-.09.411q-.061.11-.126.22c-.085.21-.007.603-.116.793-.133.236-.448.477-.673.613l-.189.068c-.184.118-.369.291-.557.41l-.341.163c-.074.047-.129.118-.224.144-.306.083-.438-.189-.683-.124-.327.087-.409.423-.88.439m-72.02.67-.557-.068c-.558-.162-1.183-.264-1.795-.381l-.826-.048c-.144-.033-.26-.119-.378-.173l-.825-.324c-.112-.045-.211-.128-.35-.163l-.351-.03-.61-.143c-.318-.058-.584.159-.871-.027a1.46 1.46 0 0 1-.548-.652c-.06-.155-.054-.306-.135-.43-.087-.135-.225-.246-.35-.344-.299-.241-.528-.659-.655-1.081-.126-.418-.137-1.479-.028-1.933.058-.238.193-.472.297-.669l.161-.431c.377-.591.816-1.159 1.347-1.586.098-.081.265-.318.341-.433q.073-.051.144-.104c.176-.16.345-.346.549-.478.314-.206.731-.221 1.148-.326.2-.05.389-.131.611-.172l.889-.058c.441-.078 1.025-.14 1.445 0 .161.054.263.168.395.23l.323.105c.228.09.448.253.656.355.177.085.374.104.575.182.191.074.392.184.601.249.198.06.383.085.611.123.344.059.667-.017.943.077.217.075.46.503.601.689q.19.127.377.258c.188.138.345.468.431.708.113.31.166.9.099 1.339-.026.171-.066.4-.036.602.154 1.041-.055 1.69-.332 2.421-.052.137-.07.278-.144.392l-.152.142c-.097.148-.193.306-.324.412l-.179.115a2.4 2.4 0 0 1-.431.459l-.108.173a2 2 0 0 1-.269.209q-.184.088-.369.172l-.125.117-.422.114c-.447.166-.748.412-1.374.411m18.635 2.66c-.17-.081-.531-.279-.773-.231-.164.034-.308.251-.529.183-.201-.062-.339-.495-.539-.642-.185-.135-.376-.107-.458-.353-.134-.407.147-.763.215-1.062.047-.203.041-.559.009-.775-.059-.401-.019-.822-.071-1.168-.057-.379.057-.682-.189-.86-.201-.145-.482-.053-.79-.106-.249-.042-.539-.149-.835-.085-.225.048-.421.127-.673.172-.399.071-.81-.069-1.231 0-.429.07-1.071.141-1.454-.009-.08-.033-.11-.114-.17-.163-.159-.133-.305-.266-.468-.393l-.269-.191c-.208-.083-.452-.119-.566-.296-.138-.215-.018-.59.117-.698.165-.131.519-.096.799-.096.396 0 .816.007 1.15.105.265.077.564.251.916.163l.448-.22.979-.21c.492-.102 1.066.087 1.535-.039.228-.061.368-.189.566-.268l.395-.105c.264-.103.574-.252.853-.335.322-.095.709-.044 1.068-.105h.449l1.024-.038c.352.058.704.004 1.014.095.437.128.799.344 1.275.45.504.111 1.265.076 1.832.076h.62c.348.062.587.176.97.238.444.075.798-.181 1.14-.266q.336-.04.673-.076c.513-.089 1.292-.134 1.85-.039q.3.014.601.03c.336.056.741-.095 1.024.017.253.101.347.331.538.489.15.122.332.201.423.392.436.911-.322 1.835-1.05 1.979q-.773-.003-1.545-.009l-.79.078c-.202.053-.39.139-.575.19l-.673.115c-.41.076-.852.003-1.284.076-.54.091-1.213-.089-1.644-.172-.314-.062-.664.02-.942.067-.661.115-1.123-.182-1.626-.287-.203-.043-.489-.102-.673-.018-.105.048-.163.256-.134.438.07.452.096 1.105-.019 1.562l-.233.525q-.076.08-.153.161c-.147.26-.171.603-.349.824l-.154.105c-.188.139-.371.343-.583.459q-.193.072-.385.143c-.223.116-.289.184-.656.183m27.066.248-.899-.056c-.684-.12-1.383-.085-2.038-.24-.876-.21-1.965-.269-2.846-.498q-.342-.1-.682-.201l-.413-.067c-.391-.138-.806-.285-1.231-.402q-.632-.075-1.265-.153l-1.096-.076-.835-.201c-.228-.055-.425-.063-.62-.144-.147-.059-.231-.206-.35-.296-.199-.15-.495-.438-.413-.842.071-.346.895-.513 1.32-.402q.22.081.44.164l1.356.286c.377.086.782.023 1.185.095.295.054.602.207.961.144l1.31-.21.71-.057.79-.02.808.085c.297.066.575.161.889.221l1.589.086c.256.07.501.161.79.21.417.073.733-.127 1.15-.057.465.079.992.049 1.437-.028.286-.05.615.054.915 0 .38-.069.656.152 1.05.077.429-.083.938-.374 1.464-.278.341.062.542.209.845.278.176.038.407.092.618.057l.495-.029c.211.038.369.114.556.153.313.062.482-.204.818-.106.174.052.299.216.43.318.283.216.391.336.583.65l.072.21.225.316a.68.68 0 0 1 0 .401c-.145.473-.696.483-1.221.392l-.494-.028-.493-.01-1.33.01-1.051-.029c-.596.099-1.16.106-1.732.211-.494.089-1.085.028-1.616.028-.702 0-1.438.037-2.181.038m-70.432.263-.503-.019c-.454-.073-.937-.032-1.347-.135-.211-.054-.426-.133-.655-.182q-.7-.124-1.401-.245c-.194-.051-.368-.136-.548-.192l-.655-.118-.574-.191Q-7.305 6.2-8.422 5.98c-.677-.133-1.546-.085-2.218-.201-1.121-.192-2.635.15-3.052-.745-.079-.168-.242-.38-.171-.662a.305.305 0 0 1 .367-.227q.315.097.629.2c.36.087.949.11 1.365.044l.386-.009 1.805-.137c.888-.147 1.839-.251 2.765-.081.213.026.425.056.638.081.386.101.737.287 1.086.393.607.179 1.01-.098 1.257-.448.192-.27.092-1.162.009-1.47-.059-.22-.093-.455-.206-.628l-.135-.101-.099-.126c-.183-.156-.383-.282-.575-.427-.353-.268-.641-.659-.906-1.019L-5.63.255c-.282-.552-.604-1.103-.799-1.745a3.3 3.3 0 0 1-.108-1.408c.048-.301-.065-.601.018-.854q.094-.17.189-.337l.152-.119.082-.163c.11-.127.251-.242.358-.373.629-.754 1.554-1.814 2.541-2.172.319-.114.696-.083 1.078-.144l1.239-.174c.458-.074 1.022.215 1.275.382l.17.182c.167.125.438.254.566.409.161.194.306.454.521.59.25.159.805.087 1.14.173.312.081.798.233.997.428.186.182.302.471.431.708.214.395.136 1.034.215 1.553.054.358.059.881 0 1.238-.062.379-.039.694-.152 1.044l-.18.337c-.067.156-.068.326-.153.463-.111.18-.243.353-.349.528-.031.061-.061.127-.09.19-.372.429-.895.945-1.392 1.236l-.35.109c-.23.082-.466.238-.683.327l-.368.108q-.103.12-.207.237c-.086.183.053.702-.008.935-.052.196-.344.572-.225.756.13.199.472.236.772.155q.377-.113.755-.218c.11-.051.216-.138.35-.184l.628-.127c.234-.052.51-.161.818-.107.188.03.342.182.565.135.203-.042.424-.201.682-.254.181-.038.397.012.539.036l.772-.01.566.109c.433.072.774-.208 1.212-.135.637.102 1.01.275 1.275.745l.135.155q.058.193.116.391c.063.152.174.245.207.454.061.387-.324.432-.602.489-.332.068-.814.148-1.23.082-.308-.047-.702-.099-1.042-.045-.702.114-1.376.169-2.046.3l-.835.091a35 35 0 0 0-1.078.3l-.655.144c-.19.06-.377.139-.584.183-.616.131-1.397.118-2.101.118m116.014 1.755c-.467-.229-1.245-.187-1.409-.737-.147-.492.19-.68.251-1.024l-.045-1.501c-.038-.216-.162-.487-.117-.794l.063-.621c-.003-.212-.037-.437.01-.63.084-.356.257-.639.314-.998.057-.354-.333-.528-.539-.611-.419-.166-1.125-.396-1.751-.286-.239.041-.421-.034-.53.133-.129.199-.019.517-.063.804l-.053 1.033c-.06.39-.14.701-.198 1.072-.046.283.07.538.027.813-.052.329-.154.535-.234.821q-.03.245-.063.489c-.075.254-.306.415-.403.65l-.135.335-.126.154c-.152.313-.186.559-.529.669-.563.18-.956-.258-1.258-.469-.402-.284-.745-.957-.844-1.559-.037-.229.051-.431.081-.612l.027-.613.153-.736c.027-.194 0-.386-.027-.565-.038-.248.026-.558.072-.765l.144-.565c.093-.216.263-.452.287-.736-.139-.292-.942-.199-1.293-.276-.195-.044-.492-.101-.728-.049-.395.087-.886.29-1.409.173-.237-.054-.574-.139-.737-.288-.112-.102-.233-.229-.358-.315-.335-.232-.924-.377-.692-1.081.16-.485.866-.455 1.401-.354.42.079.977-.015 1.436.067l.619.143q.45.018.899.039c.259.043.638.089.906.027.327-.072.583-.334.881-.458.547-.227 1.239-.327 1.885-.449.337-.065.728.045 1.014.104.349.072.688.101.988.182.364.099.748.083 1.141.163l2.11.354c.31.06.717.063 1.032.009l.808-.038.826.038q.647.04 1.293.077.633.009 1.267.018.461.026.924.048c.293.051.586.094.853.145q.39-.018.781-.039c.317.065.583.205.835.326.137.065.273.069.386.153l.359.459c.226.187.413.26.575.525.075.124.081.264.108.44.105.702-1.18.925-1.886.804-1.06-.181-2.062-.277-3.133-.459h-.602q-.62.02-1.238.038c-.469 0-.994.043-1.42-.027-.22-.039-.505 0-.628.085a.64.64 0 0 0-.225.277c-.049.151-.026.392 0 .565l.01.909.026.593c-.054.352-.086.706-.188 1.021l-.35.757c-.082.324.026.772-.055 1.091-.062.252-.326.497-.529.603l-.189.067c-.231.157-.437.384-.808.382m-27.568 1.902c.277.006.74-.023.943-.123.273-.133.733-.817.647-1.35-.059-.352-.187-.652-.261-.956-.107-.436.037-.791-.17-1.147-.383-.654-1.719-.726-2.631-.545-.403.081-.89.042-1.158.268-.151.127-.325.309-.396.517-.116.337.03 1.445.153 1.674.037.069.437.565.494.593.15.07.342-.015.52.019l.333.105c.358.172.599.55.915.774.185.13.387.079.611.171m.548 1.648c-.246-.119-.57-.138-.853-.192l-.324-.01c-.196-.042-.339-.152-.547-.192-.282-.054-.457.144-.709.107-.319-.047-.521-.181-.782-.278l-.413-.106-.566-.478c-.2-.128-.46-.218-.646-.363-.149-.117-.408-.371-.493-.545l-.136-.364c-.101-.187-.238-.415-.305-.631-.145-.476-.145-1.412-.017-1.943.112-.464.315-.792.547-1.138l.207-.409c.09-.129.21-.231.332-.327l.143-.191c.205-.18.459-.39.7-.518.244-.128.621-.041.908-.132.264-.085.479-.239.781-.307h.61c1.134-.191 2.141.349 2.73.851.091.078.185.192.279.259.16.115.492.136.673.258.22.148.364.384.565.545l.153.105q.104.22.206.441l.198.736c.177.567.264 1.295.135 1.99l-.18.689c-.048.225-.035.426-.09.631l-.278.535-.152.135-.108.171a2.8 2.8 0 0 1-1.23.565h-.818c-.178.032-.312.106-.52.106m-71.769 1.568c.515-.03.677-.287.916-.603l.161-.133c.199-.307.483-.634.566-1.042.096-.477-.114-.917-.225-1.245l-.116-.728c-.116-.35-.367-.682-.719-.784l-.467-.047c-.519-.086-1.107.178-1.382.373l-.126.134c-.259.171-.52.306-.61.651-.065.25-.057.952.018 1.177l.26.497.144.134c.077.148.167.299.277.412.102.101.405.235.477.334.274.373.38.662.826.87m24.83 1.502c-.489-.237-1.289.018-1.868-.106-.174-.037-.306-.143-.457-.191-.33-.104-.654-.183-.944-.335-.152-.08-.243-.2-.43-.269-.466-.165-1.319.2-1.186-.621.089-.547.284-.972.764-1.109q.183-.033.367-.067c.124-.034.251-.123.359-.173l.386-.085c.218-.065.356-.194.611-.238.381-.069.602.221 1.014.142q.374-.073.746-.142l.997-.078.97-.018c.246-.041.827-.088 1.095-.039.492.09.756.327 1.257.42l1.302.067.53.153c.17.032.334-.025.466-.047.279-.049.474.138.647.21l.35.124c.183.099.407.35.754.24.237-.075.632-.367.521-.747-.061-.208-.184-.331-.233-.555-.04-.177.002-.378-.027-.583l-.009-.879.125-1.005v-.928c.029-.19.06-.466.027-.689-.04-.28-.05-.517-.108-.775-.09-.41-.238-.911-.035-1.321.082-.165.438-.454.61-.524l.35-.087c.218-.069.526-.159.817-.105.212.04.397.121.548.23.079.056.123.147.234.172.255.056.336-.178.521-.219a.47.47 0 0 1 .296.037l.143.163c.117.093.282.183.368.306.123.174.39.832.431 1.07.056.321-.1.564-.063.863.128 1.015-.051 1.683-.269 2.485-.081.302-.128.62-.206.882-.096.319.212.673.242.975.052.51-.252.844-.341 1.244l-.027.429c-.05.317-.156.587-.35.747-.128.107-.292.269-.431.344-.307.167-.971.172-1.355.066-.266-.072-.592-.353-.872-.287-.197.049-.291.274-.557.24-.359-.045-.522-.318-.853-.402-.276-.069-.717.037-.951.075q-.3.008-.601.012c-.319.059-.573.178-.863.258l-.611.048-.879.162-.566.048-.862.249c-.336.083-.698.023-1.077.086-.27.045-.512.076-.817.077m77.093 1.242q-.171-.037-.341-.075c-.127-.051-.237-.142-.395-.173-.28-.054-.46.106-.737.059l-.835-.145c-.363-.064-.629.145-.987.077-.783-.148-1.602-.437-2.478-.287q-.44-.019-.88-.039-.346.101-.692.201c-.421.074-.734-.14-1.05-.201-.248-.046-.44.079-.629.115-.336.066-.76-.043-1.005-.144-.128-.051-.241-.164-.396-.21-.315-.094-.663-.18-.861-.402a.77.77 0 0 1-.144-.601c.136-.637 1.405-1.08 1.975-1.33.205-.09.36-.266.629-.346.309-.09.547.123.862.05.139-.034.24-.107.35-.154.117-.05.219-.051.35-.096.193-.065.371-.176.584-.23.492-.127.846.198 1.391.106l.934-.115c.199-.034.474-.073.7-.029.327.063.51.217.818.278.337.065.68.023.996.077l.44-.011c.398.069.668.23 1.05.317.209.047.644.056.863.019l.395-.028c.261.045.524.177.799.048.126-.061.302-.182.26-.422-.049-.287-.273-.475-.206-.898l.107-.585c.049-.161.177-.363.117-.602-.063-.25-.262-.445-.17-.823.045-.185.314-.468.278-.67-.04-.217-.178-.236-.278-.372a1.3 1.3 0 0 1-.189-.412c-.066-.269.036-.637.09-.841.097-.368.165-.656.341-.928l.135-.124c.185-.279.276-.492.583-.642l.718-.163c.136-.02.305.052.449.01.194-.056.355-.176.566-.23.425-.106.862.19 1.087.355.404.297.233 1.119.332 1.751.07.448.192.724.261 1.156.114.722-.138 1.679-.27 2.257-.097.422-.099.896-.099 1.425 0 .179-.027.342.009.498.074.32.31.728.153 1.109-.115.278-.394.384-.53.623-.091.16-.171.323-.314.42-.183.124-.502.175-.7.297l-.306.21-.332.116c-.113.053-.209.153-.341.2l-.414.086c-.269.105-.559.304-.852.383-.364.096-.642-.132-.979-.066-.37.069-.761.151-1.212.151m-46.535.211-1.033-.038-1.993-.144q-.315-.005-.628-.009l-1.006-.095c-.281-.092-.504-.315-.835-.364-.157-.023-.324.076-.458.105q-.256.016-.511.029c-.283.05-.589-.029-.809-.087-.086-.022-.202-.085-.323-.056a45 45 0 0 0-.575.221c-.23.053-.507-.012-.709-.049l-.97-.067q-.419-.014-.834-.03l-.638-.219c-.231-.048-.411.111-.584.153-.205.05-.409-.023-.575-.067l-.385-.067c-.182-.055-.489-.305-.422-.612.106-.496.927-.462 1.283-.718.181-.128.301-.351.53-.43.437-.152.791.159 1.06-.22.044-.062.087-.106.099-.211.039-.354-.115-.657-.189-.918l-.099-.469-.323-.603c-.094-.305.051-.648 0-.994-.067-.442.062-.722.162-1.032l.143-.729c.087-.308.26-.514.422-.745.511-.724 1.288-.272 2.056-.125h.53c.148.03.325.098.512.058.203-.042.376-.142.548-.201.3-.103.604-.148.942-.209.421-.08.881.036 1.212.104l.629.096.341.152c.428.116.982-.02 1.383.106.288.091.521.308.79.421.129.054.262.024.413.057l.566.133q.205.019.412.04c.177.044.42.135.656.095.251-.044.642-.135.916-.085q.341.075.682.152c.434.11.913-.126 1.383-.028.73.15.906.508 1.293 1.003.134.173.337.49.251.795-.185.66-1.93.159-2.568.286q-.25.085-.503.172l-.79.116c-.183.042-.382.104-.592.142-.303.057-.948.039-1.185-.047q-.265-.1-.53-.202l-.458-.086q-1.558-.166-3.115-.333l-2.003-.077c-.181-.033-.531-.036-.601.087-.101.116-.011.3-.036.478l-.117.65.162.535c.032.199-.102.389 0 .556.165.052.353.183.61.134l.494-.125.718.049q.252-.01.503-.021c.369.068.558.357.835.421.254.06.419-.106.683-.058.353.066.765.127 1.149.191l.691.04c.166.035.318.094.503.124.329.054.522-.182.879-.114.362.066.548.312.88.381.286.059.439-.15.674-.191.262-.044.376.132.539.201l.422.114c.283.123.334.382.503.623.051.073.136.099.206.153.176.135.331.27.413.506.108.312.051.77-.17.9-.218.126-.604-.01-.889.048-.808.162-1.622.25-2.622.248m-56.968.009c-.296-.126-.778.019-1.06-.114-.253-.12-.527-.644-.772-.842-.092-.075-.209-.106-.305-.182a14 14 0 0 1-.925-.774c-.434-.4-.742-.928-1.087-1.425a5 5 0 0 0-.143-.152c-.126-.189-.211-.398-.324-.594-.065-.114-.165-.208-.215-.346-.087-.238-.154-.836-.107-1.147.079-.537-.015-1.144.143-1.617.271-.806 1.026-1.394 1.553-1.95l.118-.173c.132-.113.255-.204.394-.315l.135-.174.377-.162c.172-.102.426-.271.602-.343l.376-.105.35-.174c.225-.069.442-.076.692-.123.315-.061.786-.139 1.132-.048.299.079.545.25.817.345.19.066.412.057.583.143.142.07.28.205.441.267.239.095.534-.009.834.049q.215.065.431.133c.08.037.103.134.161.192l.154.104q.053.083.107.163l.144.096c.088.118.249.339.368.41.189.116.384.216.556.356l.108.171c.137.188.317.385.431.593l.063.182.135.125c.092.127.153.259.234.402.11.196.395.551.251.813-.163.065-.498.082-.539.286-.042.207.211.4.278.526q.032.129.063.259c.13.681-.193 1.168-.413 1.531-.071.115-.087.269-.153.381-.24.415-.561.802-.817 1.205q-.03.087-.063.173l-.134.134c-.15.186-.238.456-.422.602-.519.414-1.173.569-1.958.71-.169.029-.413.049-.583.009-.273-.066-.599-.27-.952-.183-.472.117-.461.584-1.059.583m82.687.182c-.39-.183-.648-.344-.808-.765-.086-.224-.041-.47-.082-.737l-.017-.957-.117-.737c-.055-.196-.218-.317-.297-.475l-.107-.384c-.101-.267-.236-.518-.305-.822-.057-.254-.02-.627 0-.862l.008-.756c.048-.226.147-.415.189-.659.022-.131-.025-.247-.045-.345-.078-.393-.165-.724-.242-1.089-.086-.404.033-.807.09-1.148l-.036-.612c-.039-.254.124-1.112.197-1.244.139-.248.425-.409.709-.498.136-.041.378-.007.477-.095.096-.087.264-.377.34-.422.193-.108.421 0 .665-.047.19-.037.38-.167.629-.115.27.056.601.293.485.708-.043.152-.244.299-.18.507.036.12.148.177.197.277.097.191.03.47.081.718.064.311.232.489.288.784.064.34-.164.521-.207.765-.045.254.249.581.305.813.059.244-.082.468 0 .679.105.272.429.087.701.135l.925.239c.243.05.526-.028.771.018.197.038.378.12.513.229l.116.212c.202.274.517.418.647.774.109.3-.048.619-.117.824-.053.155-.042.328-.126.448-.092.133-.458.25-.619.325-.129.061-.224.199-.369.249-.366.126-1.035.158-1.49.077-.352-.063-.722-.028-1.05-.086-.09-.016-.268.004-.315.047-.196.19.018.826-.054 1.195q-.067.333-.135.661c-.061.38.011.866-.161 1.148-.184.302-.533.423-.817.621-.2.142-.311.389-.637.402m-69.839.584-.171-.047c-.174-.094-.281-.232-.52-.277q-.13.012-.261.028c-.309.062-.566-.02-.691-.21-.132-.204-.177-.926-.233-1.234-.093-.509-.136-.989-.216-1.492l-.045-.862.018-1.3c-.042-.29-.139-.683-.072-1.025.054-.272.282-.454.251-.765-.031-.334-.124-.544-.188-.842l-.09-.994c-.052-.318-.024-.726.117-.928.085-.122.24-.141.36-.23.123-.089.235-.251.368-.335.184-.116.456-.139.699-.181l.657.057c.306-.058.462-.48.798-.41.578.117.63.81.791 1.385l.098.183c.088.198.141.444.18.68.06.367-.148.631-.09.965.026.151.174.435.251.554.105.163.307.406.62.306.236-.073.356-.384.718-.306.228.05.358.192.593.239.256.053.51-.056.718-.095.214-.04.397.05.538.095.506.164.791.312.961.832.102.311.106.754-.062 1.014-.094.148-.283.216-.431.307-.107.065-.19.189-.314.239-.282.111-.64.098-.962.154l-.628.008h-.341l-.772.136c-.379.068-.942-.285-1.167.018-.347.464-.117 1.191.018 1.76.034.147.105.325.072.535q-.055.24-.108.479l-.683.832c-.218.376-.188.733-.781.727m59.082.372-.288-.114c-.244-.155-.505-.351-.789-.478-.255-.114-.556-.095-.664-.353-.077-.181 0-.438-.046-.64-.033-.147-.146-.225-.18-.365-.06-.255.285-.432.136-.65-.071-.141-.311-.106-.494-.106-.394 0-.811-.07-1.168.02-.354.088-.856.089-1.175-.049l-.333-.181c-.294-.117-.587-.167-.863-.297l-.169-.153c-.118-.085-.267-.153-.387-.228-.249-.159-.738-.285-.664-.767.041-.262.214-.346.386-.468l.107-.125c.167-.132.436-.216.674-.257.206-.038.402.029.548.066.296.073.721.138 1.077.067.548-.11 1.287-.34 2.021-.211.377.068.669.165 1.041.23.268.047.528-.068.719-.124.284-.084.769-.126 1.104-.048.238.055.529.133.717.259.123.081.211.197.369.259.196.074.417.015.665.056.275.046.491.115.746.171.265.058.537-.064.753-.104.43-.079 1.262-.047 1.58.086.131.055.228.198.36.268.153.081.333.151.421.296l.045.239c.079.5-.334.551-.592.717-.095.061-.124.144-.198.221-.199.208-.615.431-.951.497-.666.129-1.51-.367-2.038-.02-.277.183-.063.551-.216.805-.089.146-.268.234-.36.372q-.04.097-.08.191c-.109.154-.326.402-.476.508-.173.121-.43.106-.638.19-.221.093-.368.22-.7.22m-80.5-.035c-.372-.187-.702-.229-1.221-.144q-.74.004-1.481.009-.459.017-.916.036-.458.006-.916.009l-1.149-.054-.772-.02c-.285.046-.813.073-1.105.02l-.475-.073q-.294-.093-.584-.182-.889-.105-1.778-.208c-.372-.063-.835-.011-1.167.045q-.234.013-.467.027l-2.55.192c-.346.054-.981-.013-1.284-.065-.453-.075-.924-.036-1.347-.127-.393-.085-.775-.257-1.15-.362a17 17 0 0 0-.376-.083c-.113-.047-.201-.139-.296-.2-.244-.157-.48-.182-.548-.519-.026-.124.017-.248.044-.327.186-.536.925-.306 1.42-.526.272-.122.59-.357 1.041-.284.286.049.534.218.898.157.399-.069.753-.165 1.185-.238.457-.074.929.09 1.356.101.698.016 2.024-.01 2.226-.444.144-.312-.18-.486-.296-.628l-.108-.245c-.162-.225-.3-.459-.466-.692l-.135-.117c-.134-.182-.242-.372-.377-.555-.106-.143-.259-.28-.36-.427l-.071-.154-.117-.082-.251-.39c-.077-.108-.189-.212-.261-.317l-.161-.43a4 4 0 0 0-.225-.271l-.135-.09c-.185-.266-.385-.517-.583-.773-.117-.153-.291-.302-.378-.482a2 2 0 0 1-.188-.536c-.03-.197.385-1.133.476-1.227.146-.153.441-.083.692-.135l.493-.129c.52-.106 1.153.156 1.518.308.451.191.487.783.735 1.183.155.248.595.657.827.844.128.103.293.211.377.354.097.166.129.387.216.565l.125.145.368.845c.086.156.244.282.351.418.146.187.313.433.556.519.169.057.42-.122.53-.183.165-.092.644-.367.745-.5.087-.114.126-.266.215-.382.161-.209.401-.376.611-.536l.144-.181c.319-.247.612-.529.961-.747.193-.119.421-.171.601-.299l.153-.181c.171-.134.357-.227.538-.355l.144-.18c.171-.124.315-.276.476-.41q.17-.093.341-.181c.196-.129.602-.52.979-.328.173.088.232.323.386.426.13.087.305.135.413.246l.189.382c.126.231.348.344.421.626.112.428-.151.925-.269 1.238l-.126.418c-.078.124-.21.241-.296.362l-.188.327-.153.127a2.2 2.2 0 0 1-.342.383 6 6 0 0 1-.466.345l-.162.082-.081.099-.161.092-.099.145c-.136.102-.273.193-.395.309l-.108.146c-.276.225-.554.436-.825.671l-.109.127c-.111.073-.448.268-.404.437.024.161.245.208.431.174.277-.055.583-.057.898-.111.117-.02.293-.052.44-.027.235.041.412.228.692.173.705-.14 1.572-.344 2.379-.182.365.074.793-.012 1.05.155.316.204.73.766.521 1.336l-.207.425c-.041.068-.107.11-.134.194-.138.425-.409 1.104-.943 1.097" style="fill:#231f20;fill-opacity:1;fill-rule:nonzero;stroke:none;stroke-width:.128293" transform="matrix(2.74977 0 0 -2.74977 64.67 183.892)"/></g></g></g></svg>